<svg width="171" height="30" viewBox="0 0 171 30" fill="none" xmlns="http://www.w3.org/2000/svg">
<path d="M13.48 3.48076C13.48 3.48076 8.51953 9.91629 8.51953 14.7106C8.51953 19.5049 13.48 25.9405 13.48 25.9405" stroke="#28C3DD" stroke-width="3.30697"/>
<path d="M13.687 3.44623C13.687 3.44623 18.6475 9.90154 18.6475 14.7106C18.6475 19.5197 13.687 25.975 13.687 25.975" stroke="#28C3DD" stroke-width="3.30697"/>
<path d="M13.5835 27.5253C13.5835 27.5253 24.1245 26.0784 24.8479 13.6773C24.9631 11.7019 23.8145 8.71683 23.8145 8.71683" stroke="#28C3DD" stroke-width="0.620058"/>
<path d="M12.9635 25.2516C6.74237 25.2516 2.52588 19.8984 2.52588 13.6772C2.52588 7.45606 7.56912 2.41283 13.7903 2.41283" stroke="#28C3DD" stroke-width="3.30697"/>
<path d="M12.1365 27.6285C18.337 27.6285 24.8477 20.5197 24.8477 13.5739C24.8476 7.26995 19.9077 2.41283 13.6866 2.41283" stroke="#28C3DD" stroke-width="3.30697"/>
<line x1="24.8477" y1="14.814" x2="2.31889" y2="14.814" stroke="#28C3DD" stroke-width="2.06686"/>
<path d="M31.6567 19.2014V9.60152H30V8H35.2371V9.60152H33.6632V19.2014H37.5842V14.8479H39.3882V20.8029H30V19.2014H31.6567Z" fill="#173857"/>
<path d="M49.6692 16.7899H42.177C42.2875 17.6122 42.6127 18.2779 43.1527 18.7872C43.6927 19.2965 44.383 19.5512 45.2236 19.5512C46.4447 19.5512 47.4111 19.0603 48.1229 18.0785L49.6692 18.7596C49.166 19.5389 48.5125 20.1187 47.7087 20.4992C46.9049 20.8735 46.0642 21.0606 45.1868 21.0606C43.8246 21.0606 42.6587 20.6372 41.6892 19.7905C40.7259 18.9376 40.2442 17.7901 40.2442 16.3481C40.2442 14.9798 40.7136 13.8538 41.6524 12.9702C42.5974 12.0866 43.6804 11.6448 44.9015 11.6448C46.098 11.6448 47.181 12.0774 48.1505 12.9426C49.1261 13.8017 49.6324 15.0841 49.6692 16.7899ZM47.8652 15.5198C47.7425 14.8939 47.4173 14.3294 46.8895 13.8262C46.3618 13.3169 45.7145 13.0623 44.9475 13.0623C44.248 13.0623 43.6497 13.2924 43.1527 13.7526C42.6557 14.2066 42.3519 14.7957 42.2415 15.5198H47.8652Z" fill="#173857"/>
<path d="M60.1343 19.2474V20.8029H57.0785V19.7168C56.2317 20.5391 55.2868 20.9502 54.2436 20.9502C53.4337 20.9502 52.728 20.6863 52.1267 20.1586C51.5315 19.6309 51.2339 18.956 51.2339 18.1337C51.2339 17.3054 51.5499 16.6181 52.1819 16.072C52.8201 15.5259 53.5871 15.2528 54.4829 15.2528C55.3175 15.2528 56.1243 15.5044 56.9036 16.0076V15.124C56.9036 14.6699 56.8607 14.3202 56.7748 14.0747C56.6889 13.8293 56.4864 13.6084 56.1673 13.412C55.8544 13.2157 55.4432 13.1175 54.9339 13.1175C54.0565 13.1175 53.4214 13.4672 53.0287 14.1668L51.3535 13.725C52.096 12.3382 53.3785 11.6448 55.2009 11.6448C55.8697 11.6448 56.4465 11.7369 56.9312 11.921C57.4221 12.0989 57.7872 12.3321 58.0265 12.6205C58.2658 12.9027 58.4254 13.2095 58.5051 13.5409C58.591 13.8722 58.634 14.3999 58.634 15.124V19.2474H60.1343ZM56.9036 17.4894C56.1489 16.9004 55.3849 16.6058 54.6118 16.6058C54.1271 16.6058 53.7221 16.747 53.3969 17.0292C53.0716 17.3115 52.909 17.6766 52.909 18.1245C52.909 18.5418 53.0502 18.8915 53.3324 19.1738C53.6208 19.4561 54.0105 19.5972 54.5014 19.5972C55.3481 19.5972 56.1489 19.2413 56.9036 18.5295V17.4894Z" fill="#173857"/>
<path d="M62.5918 19.2474V13.4488H60.797V11.8933H63.9908V13.8998C64.1871 13.3783 64.4602 12.9457 64.81 12.6021C65.1597 12.2584 65.5279 12.0314 65.9145 11.921C66.3072 11.8105 66.841 11.7553 67.516 11.7553H67.9762V13.5225H67.6264C66.7367 13.5225 66.0709 13.6114 65.6291 13.7894C65.1935 13.9673 64.8683 14.2925 64.6535 14.765C64.4449 15.2314 64.3405 16.072 64.3405 17.287V19.2474H66.2826V20.8029H60.797V19.2474H62.5918Z" fill="#173857"/>
<path d="M72.6335 11.8933V12.9702C73.7564 12.1603 74.7811 11.7553 75.7076 11.7553C76.2844 11.7553 76.76 11.8933 77.1343 12.1695C77.5147 12.4395 77.7632 12.7739 77.8798 13.1727C77.9964 13.5654 78.0547 14.1422 78.0547 14.9031V19.2474H79.555V20.8029H76.3059V14.9767C76.3059 14.3018 76.2047 13.863 76.0022 13.6605C75.7997 13.4519 75.5512 13.3476 75.2566 13.3476C74.4835 13.3476 73.6091 13.725 72.6335 14.4797V19.2474H74.1705V20.8029H69.32V19.2474H70.8847V13.4488H69.32V11.8933H72.6335Z" fill="#173857"/>
<path d="M88.1406 19.2014V9.60152H86.4838V8H91.7209V9.60152H90.147V19.2014H94.068V14.8479H95.872V20.8029H86.4838V19.2014H88.1406Z" fill="#173857"/>
<path d="M105.812 19.2474V20.8029H102.757V19.7168C101.91 20.5391 100.965 20.9502 99.9218 20.9502C99.1119 20.9502 98.4062 20.6863 97.8049 20.1586C97.2097 19.6309 96.9121 18.956 96.9121 18.1337C96.9121 17.3054 97.2281 16.6181 97.8601 16.072C98.4982 15.5259 99.2653 15.2528 100.161 15.2528C100.996 15.2528 101.803 15.5044 102.582 16.0076V15.124C102.582 14.6699 102.539 14.3202 102.453 14.0747C102.367 13.8293 102.165 13.6084 101.845 13.412C101.533 13.2157 101.121 13.1175 100.612 13.1175C99.7347 13.1175 99.0996 13.4672 98.7069 14.1668L97.0317 13.725C97.7742 12.3382 99.0566 11.6448 100.879 11.6448C101.548 11.6448 102.125 11.7369 102.609 11.921C103.1 12.0989 103.465 12.3321 103.705 12.6205C103.944 12.9027 104.104 13.2095 104.183 13.5409C104.269 13.8722 104.312 14.3999 104.312 15.124V19.2474H105.812ZM102.582 17.4894C101.827 16.9004 101.063 16.6058 100.29 16.6058C99.8052 16.6058 99.4002 16.747 99.075 17.0292C98.7498 17.3115 98.5872 17.6766 98.5872 18.1245C98.5872 18.5418 98.7283 18.8915 99.0106 19.1738C99.299 19.4561 99.6886 19.5972 100.18 19.5972C101.026 19.5972 101.827 19.2413 102.582 18.5295V17.4894Z" fill="#173857"/>
<path d="M109.881 11.8933V12.9702C111.004 12.1603 112.028 11.7553 112.955 11.7553C113.532 11.7553 114.007 11.8933 114.381 12.1695C114.762 12.4395 115.01 12.7739 115.127 13.1727C115.244 13.5654 115.302 14.1422 115.302 14.9031V19.2474H116.802V20.8029H113.553V14.9767C113.553 14.3018 113.452 13.863 113.249 13.6605C113.047 13.4519 112.798 13.3476 112.504 13.3476C111.731 13.3476 110.856 13.725 109.881 14.4797V19.2474H111.418V20.8029H106.567V19.2474H108.132V13.4488H106.567V11.8933H109.881Z" fill="#173857"/>
<path d="M128.436 11.8933V13.4488H126.835V20.085C126.835 20.9809 126.789 21.6436 126.697 22.0731C126.605 22.5088 126.381 22.9505 126.025 23.3985C125.675 23.8526 125.147 24.233 124.442 24.5398C123.736 24.8466 122.947 25 122.076 25C120.763 25 119.591 24.6042 118.56 23.8127L119.701 22.5425C120.475 23.1438 121.315 23.4445 122.223 23.4445C122.727 23.4445 123.193 23.3463 123.622 23.15C124.052 22.9598 124.371 22.7266 124.58 22.4505C124.794 22.1743 124.932 21.9105 124.994 21.6589C125.055 21.4135 125.086 20.9962 125.086 20.4071V19.5972C124.81 19.9469 124.377 20.2783 123.788 20.5912C123.199 20.9042 122.555 21.0606 121.855 21.0606C120.579 21.0606 119.539 20.6188 118.735 19.7352C117.931 18.8517 117.529 17.7656 117.529 16.477C117.529 15.0657 117.971 13.9274 118.855 13.0623C119.744 12.1909 120.772 11.7553 121.938 11.7553C123.116 11.7553 124.165 12.2247 125.086 13.1635V11.8933H128.436ZM119.389 16.4402C119.389 17.3422 119.649 18.0785 120.171 18.6492C120.699 19.2198 121.37 19.5051 122.187 19.5051C122.984 19.5051 123.671 19.2198 124.248 18.6492C124.825 18.0724 125.113 17.333 125.113 16.431C125.113 15.5167 124.825 14.7834 124.248 14.2312C123.671 13.6728 123.003 13.3936 122.242 13.3936C121.481 13.3936 120.815 13.6697 120.244 14.222C119.674 14.7681 119.389 15.5075 119.389 16.4402Z" fill="#173857"/>
<path d="M139.076 19.2474V20.8029H135.79V19.7813C134.766 20.5605 133.784 20.9502 132.845 20.9502C132.25 20.9502 131.756 20.8213 131.363 20.5636C130.976 20.2998 130.719 19.9623 130.59 19.5512C130.461 19.1339 130.397 18.4651 130.397 17.5447V13.4488H129.136V11.8933H132.145V17.3238C132.145 17.9803 132.164 18.4221 132.201 18.6492C132.237 18.8762 132.345 19.0633 132.523 19.2106C132.701 19.3579 132.925 19.4315 133.195 19.4315C134.005 19.4315 134.87 19.0449 135.79 18.2718V13.4488H134.216V11.8933H137.539V19.2474H139.076Z" fill="#173857"/>
<path d="M149.035 19.2474V20.8029H145.979V19.7168C145.132 20.5391 144.187 20.9502 143.144 20.9502C142.334 20.9502 141.629 20.6863 141.027 20.1586C140.432 19.6309 140.135 18.956 140.135 18.1337C140.135 17.3054 140.451 16.6181 141.083 16.072C141.721 15.5259 142.488 15.2528 143.384 15.2528C144.218 15.2528 145.025 15.5044 145.804 16.0076V15.124C145.804 14.6699 145.761 14.3202 145.675 14.0747C145.59 13.8293 145.387 13.6084 145.068 13.412C144.755 13.2157 144.344 13.1175 143.835 13.1175C142.957 13.1175 142.322 13.4672 141.929 14.1668L140.254 13.725C140.997 12.3382 142.279 11.6448 144.102 11.6448C144.77 11.6448 145.347 11.7369 145.832 11.921C146.323 12.0989 146.688 12.3321 146.927 12.6205C147.167 12.9027 147.326 13.2095 147.406 13.5409C147.492 13.8722 147.535 14.3999 147.535 15.124V19.2474H149.035ZM145.804 17.4894C145.05 16.9004 144.286 16.6058 143.512 16.6058C143.028 16.6058 142.623 16.747 142.298 17.0292C141.972 17.3115 141.81 17.6766 141.81 18.1245C141.81 18.5418 141.951 18.8915 142.233 19.1738C142.522 19.4561 142.911 19.5972 143.402 19.5972C144.249 19.5972 145.05 19.2413 145.804 18.5295V17.4894Z" fill="#173857"/>
<path d="M160.853 11.8933V13.4488H159.252V20.085C159.252 20.9809 159.206 21.6436 159.113 22.0731C159.021 22.5088 158.797 22.9505 158.442 23.3985C158.092 23.8526 157.564 24.233 156.858 24.5398C156.153 24.8466 155.364 25 154.493 25C153.18 25 152.008 24.6042 150.977 23.8127L152.118 22.5425C152.891 23.1438 153.732 23.4445 154.64 23.4445C155.143 23.4445 155.61 23.3463 156.039 23.15C156.469 22.9598 156.788 22.7266 156.997 22.4505C157.211 22.1743 157.349 21.9105 157.411 21.6589C157.472 21.4135 157.503 20.9962 157.503 20.4071V19.5972C157.227 19.9469 156.794 20.2783 156.205 20.5912C155.616 20.9042 154.972 21.0606 154.272 21.0606C152.996 21.0606 151.956 20.6188 151.152 19.7352C150.348 18.8517 149.946 17.7656 149.946 16.477C149.946 15.0657 150.388 13.9274 151.272 13.0623C152.161 12.1909 153.189 11.7553 154.355 11.7553C155.533 11.7553 156.582 12.2247 157.503 13.1635V11.8933H160.853ZM151.805 16.4402C151.805 17.3422 152.066 18.0785 152.588 18.6492C153.115 19.2198 153.787 19.5051 154.603 19.5051C155.401 19.5051 156.088 19.2198 156.665 18.6492C157.242 18.0724 157.53 17.333 157.53 16.431C157.53 15.5167 157.242 14.7834 156.665 14.2312C156.088 13.6728 155.42 13.3936 154.659 13.3936C153.898 13.3936 153.232 13.6697 152.661 14.222C152.091 14.7681 151.805 15.5075 151.805 16.4402Z" fill="#173857"/>
<path d="M170.784 16.7899H163.292C163.403 17.6122 163.728 18.2779 164.268 18.7872C164.808 19.2965 165.498 19.5512 166.339 19.5512C167.56 19.5512 168.526 19.0603 169.238 18.0785L170.784 18.7596C170.281 19.5389 169.628 20.1187 168.824 20.4992C168.02 20.8735 167.179 21.0606 166.302 21.0606C164.94 21.0606 163.774 20.6372 162.804 19.7905C161.841 18.9376 161.359 17.7901 161.359 16.3481C161.359 14.9798 161.829 13.8538 162.768 12.9702C163.712 12.0866 164.795 11.6448 166.017 11.6448C167.213 11.6448 168.296 12.0774 169.266 12.9426C170.241 13.8017 170.747 15.0841 170.784 16.7899ZM168.98 15.5198C168.858 14.8939 168.532 14.3294 168.005 13.8262C167.477 13.3169 166.83 13.0623 166.063 13.0623C165.363 13.0623 164.765 13.2924 164.268 13.7526C163.771 14.2066 163.467 14.7957 163.357 15.5198H168.98Z" fill="#173857"/>
<path opacity="0.7" d="M80.9828 8.52745L90.1383 14.0777L84.8524 23.6911L75.6968 18.1408L80.9828 8.52745Z" fill="#28C3DD"/>
<path d="M85.2348 19.6739L84.6607 20.7164L82.7073 19.5339L83.1081 18.806C82.2634 19.0295 81.5076 18.9393 80.8407 18.5357C80.323 18.2223 79.9692 17.7724 79.7796 17.1861C79.5939 16.6021 79.6527 16.0346 79.9562 15.4835C80.2619 14.9283 80.7176 14.59 81.3232 14.4686C81.9327 14.3495 82.5238 14.4633 83.0965 14.8099C83.6299 15.1328 84.0529 15.6137 84.3653 16.2524L84.6914 15.6602C84.859 15.3559 84.9607 15.1049 84.9963 14.9071C85.032 14.7094 84.9841 14.483 84.8526 14.2279C84.725 13.9753 84.4984 13.7504 84.1729 13.5533C83.6119 13.2138 83.0769 13.2025 82.5677 13.5193L81.6599 12.575C82.6463 11.9329 83.722 11.9644 84.887 12.6696C85.3146 12.9284 85.6493 13.2133 85.8913 13.5242C86.1394 13.8334 86.2867 14.131 86.3333 14.4169C86.3821 14.6986 86.3708 14.966 86.2995 15.2189C86.2321 15.4742 86.0648 15.8445 85.7976 16.3298L84.2757 19.0933L85.2348 19.6739ZM83.8184 17.2456C83.5534 16.5587 83.1737 16.0657 82.6795 15.7666C82.3696 15.579 82.0586 15.5169 81.7465 15.5802C81.4345 15.6435 81.1958 15.8253 81.0305 16.1255C80.8765 16.4052 80.8376 16.6942 80.9139 16.9926C80.994 17.2933 81.191 17.5387 81.5048 17.7286C82.0461 18.0563 82.6894 18.1276 83.4346 17.9426L83.8184 17.2456Z" fill="#173857"/>
</svg>
