<svg xmlns="http://www.w3.org/2000/svg" width="19" height="19" fill="none" viewBox="0 0 19 19">
    <path fill="#006233" d="M19 15.834V3.166H0v12.668h19z"/>
    <path fill="#fff" fill-rule="evenodd" stroke="#fff" stroke-width=".005" d="M7.92 9.727c-.248.338-.07.558.186.574.168.011.517-.217.517-.484l-.096-.049c.054.137-.002.18-.116.275-.224.185-.682.198-.491-.316z" clip-rule="evenodd"/>
    <path fill="#fff" fill-rule="evenodd" stroke="#fff" stroke-width=".012" d="M9.88 10.614c1.393.035 1.836-1.19.977-2.24l-.085.115c.055.49.135.971.143 1.473-.168.18-.413.113-.461-.087.002-.271-.095-.5-.218-.72l-.069.116c.08.18.167.382.185.604-.397.434-.836.521-.673-.049-.314.5.161.852.7.083.116.525.563.199.59.086.048-.344.023-.899-.075-1.337.388.611.401 1.052.195 1.347-.23.327-.728.48-1.208.609z" clip-rule="evenodd"/>
    <path fill="#fff" fill-rule="evenodd" stroke="#fff" stroke-width=".012" d="M10.67 9.228c-.297.02-.45-.036-.289-.237.16-.196.309-.04.349.223.037.246-.524.56-.718.56-.293 0-.428-.344-.158-.652-.348.9.75.378.817.106zm-.206-.209c-.036-.002-.063.056-.045.068.053.033.136.013.144-.004.019-.036-.048-.062-.099-.064z" clip-rule="evenodd"/>
    <path fill="#fff" fill-rule="evenodd" stroke="#fff" stroke-width=".012" d="M9.052 9.653c-.286.512 0 .724.367.665.214-.035.485-.174.642-.362.003-.416-.004-.827-.044-1.23.143-.155-.012-.155-.067-.321-.025.097-.085.202-.027.278.042.406.064.817.064 1.235-.289.212-.506.29-.66.288-.32-.002-.39-.248-.275-.553z" clip-rule="evenodd"/>
    <path fill="#fff" fill-rule="evenodd" stroke="#fff" stroke-width=".012" d="M9.638 9.788c-.005-.387-.011-.825-.05-1.096.15-.15-.007-.154-.056-.322-.029.095-.092.2-.036.277.025.414.048.827.053 1.241.035-.02.074-.028.089-.1z" clip-rule="evenodd"/>
    <path fill="#fff" fill-rule="evenodd" stroke="#fff" stroke-width=".005" d="M8.526 9.77c-.036-.042-.062-.089-.092-.13-.005-.058.038-.112.044-.141.049.068.078.12.117.154l-.07.117zm.12-.09c.072.026.16.026.24.028.314.005.644-.042.608.344-.03.343-.343.54-.622.538-.399-.003-.739-.403-.125-1.14.06-.008.137.007.201.012a.489.489 0 0 0 .351-.095c-.015-.243-.015-.472-.047-.691-.056-.078.007-.181.036-.277.049.168.204.172.056.323.036.243.04.49.04.639-.075.103-.133.212-.351.254-.223-.03-.323-.313-.555-.219.064-.255.653-.314.713-.112-.04.21-.59.126-.736.806-.045.21.198.402.447.386.244-.014.504-.168.53-.427.02-.217-.316-.191-.456-.189-.205.005-.334-.024-.411-.065l.081-.115zm.128-.353c.037-.032.164-.053.21-.003a.53.53 0 0 0-.096.07c-.048-.022-.08-.045-.114-.067z" clip-rule="evenodd"/>
    <path fill="#fff" fill-rule="evenodd" stroke="#fff" stroke-width=".012" d="M9.086 8.608c.034.07.048.116.05.182-.02.09-.106.175-.194.178a.16.16 0 0 1-.158-.09c-.005-.01-.028-.032-.05-.022-.096.145-.168.206-.255.205-.174-.003-.122-.144-.283-.187-.066-.002-.176.06-.233.18-.213.552-.408-.001-.325-.258.012.246.077.392.144.387.049-.004.092-.107.154-.214.048-.083.162-.232.283-.232.111.003.041.188.263.186.107-.002.205-.077.305-.226.022-.004.027.032.032.044.015.051.113.192.245.063-.007-.027-.004-.074-.038-.083l.06-.113z" clip-rule="evenodd"/>
    <path fill="#fff" fill-rule="evenodd" stroke="#fff" stroke-width=".005" d="M9.782 8.15a.215.215 0 0 1-.252-.042c.085-.015.15-.043.17-.104-.038-.078-.13-.112-.257-.113-.171.004-.259.067-.27.153.08.003.151-.017.182.052-.14.063-.306.085-.485.084-.294.014-.337-.107-.415-.213a.072.072 0 0 0-.045-.016c-.09 0-.157.288-.26.288-.102-.013-.079-.186-.108-.285-.025.155.031.734.347.106.01-.021.023-.015.032.002.085.176.258.237.444.245.156.008.354-.054.567-.163.057.056.102.12.22.133.139.006.287-.085.32-.198.017-.059.02-.173-.048-.175-.094-.003-.163.206-.141.394a.665.665 0 0 0 .012-.047l-.013-.1zM9.377 8c.062-.026.122-.038.17.02a.274.274 0 0 0-.08.034c-.027-.019-.063-.028-.09-.054zm.457.13c.015-.062.023-.111.079-.143.011.065.013.101-.08.143zM10.206 8.226c-.018-.053-.036-.1-.042-.157-.014-.116.096-.182.196-.173.102.01.17.045.267.075.076.023.18.042.278.067.055.022 0 .082-.014.09-.247.087-.421.226-.578.232-.094.005-.177-.051-.252-.165a6.123 6.123 0 0 0-.038-.642c.037-.033.044-.057.062-.084.019.214.026.44.031.668.02.039.045.072.09.089zm.157.017c-.131.034-.115-.068-.127-.13-.015-.073-.005-.156.097-.135.133.032.254.075.371.12l-.34.145z" clip-rule="evenodd"/>
    <path fill="#fff" fill-rule="evenodd" d="M10.234 8.35l.018.082h.015l-.006-.076" clip-rule="evenodd"/>
    <path stroke="#fff" stroke-width=".005" d="M10.234 8.35l.018.082h.015l-.006-.076"/>
    <path fill="#fff" fill-rule="evenodd" stroke="#fff" stroke-linecap="round" stroke-linejoin="round" stroke-width=".048" d="M8.132 9.195l.067-.062.078.06-.072.058-.073-.056zM8.302 9.175l.068-.063.077.06-.071.058-.074-.055zM7.83 8.526l.068-.062.077.06-.071.058-.074-.056zM7.86 8.71l.068-.062.077.06-.072.058-.073-.056zM9.088 9.019l.062-.046.057.056-.065.042-.054-.052zM8.269 7.84l.043-.041.051.039-.047.038-.047-.036zM8.38 7.827l.044-.042.05.04-.046.037-.048-.035zM10.726 8.293l-.042.033-.04-.038.043-.03.039.035z" clip-rule="evenodd"/>
    <path fill="#fff" fill-rule="evenodd" stroke="#fff" stroke-width=".005" d="M8.748 9.447l-.004.068.12.01.096-.065-.212-.013z" clip-rule="evenodd"/>
    <path fill="#fff" fill-rule="evenodd" stroke="#fff" stroke-width=".012" d="M9.766 8.164l.035-.007-.004.09-.022.007-.01-.09z" clip-rule="evenodd"/>
    <path fill="#fff" d="M9.5 11.767c1.356 0 2.46-1.003 2.46-2.237 0-.679-.333-1.284-.857-1.694.314.337.505.78.505 1.262 0 1.071-.943 1.94-2.108 1.94-1.164 0-2.107-.869-2.107-1.94 0-.482.19-.925.505-1.262-.524.41-.856 1.015-.856 1.694 0 1.234 1.103 2.237 2.458 2.237z"/>
    <path fill="#fff" stroke="#CECECE" stroke-width=".095" d="M9.168 13.012c-.543.246-1.22.18-1.794-.157-.024-.011-.037.005-.012.067.062.163.11.292-.074.533-.08.106.012.123.148.112.69-.062 1.368-.202 1.695-.32l.037-.235zM9.156 13.303a6.033 6.033 0 0 1-.998.241c-.167.023-.16.118.135.152.302.028.69-.168.924-.342l-.061-.05z"/>
    <path fill="#fff" stroke="#CECECE" stroke-width=".095" d="M9.5 12.765c.074 0 .21-.028.345-.045.252-.039.068.314-.345.314v.118c.419 0 .856-.415.764-.6-.13-.27-.487-.04-.764-.04-.278 0-.635-.23-.764.04-.093.185.345.6.764.6v-.118c-.413 0-.598-.353-.345-.314.135.017.27.045.345.045z"/>
    <path fill="#fff" stroke="#CECECE" stroke-width=".095" d="M9.833 13.012c.542.246 1.22.18 1.793-.157.024-.011.037.005.012.067-.062.163-.11.292.074.533.08.106-.012.123-.148.112-.69-.062-1.368-.202-1.695-.32l-.036-.235zM9.846 13.303c.216.079.58.174.998.241.167.023.16.118-.135.152-.302.028-.69-.168-.925-.342l.062-.05z"/>
    <path fill="#fff" stroke="#CECECE" stroke-width=".095" d="M9.519 13.247c.012.096.03.303.172.213.191-.117.235-.207.235-.375 0-.107-.142-.264-.426-.264-.283 0-.425.157-.425.264 0 .168.043.258.234.375.142.09.154-.117.173-.213.006-.033.037-.022.037 0z"/>
    <path fill="#fff" stroke="#F4F4F4" stroke-width=".095" d="M9.322 6.064c-.08-.415-.751-.443-.856-.51-.123-.073-.105 0-.062.112.123.292.543.41.734.443.154.023.203.034.184-.045z"/>
    <path fill="#fff" stroke="#F4F4F4" stroke-width=".095" d="M9.525 6.075c.068-.426-.598-.628-.678-.723-.092-.1-.105-.04-.061.079.08.252.37.55.542.628.142.067.185.095.197.016z"/>
    <path fill="#fff" stroke="#F4F4F4" stroke-width=".095" d="M10.074 6.322c.062-.51-.48-.589-.622-.751-.093-.101-.099-.045-.068.073.061.258.333.56.499.656.13.073.185.1.191.022z"/>
    <path fill="#fff" stroke="#F4F4F4" stroke-width=".095" d="M9.908 6.21c-.561-.33-.955-.146-1.116-.163-.154-.016-.203.073.062.208.327.163.783.14.961.078.185-.067.13-.1.093-.123zM10.752 6.434c-.173-.55-.573-.46-.69-.527-.117-.067-.13-.05-.105.073.05.219.462.46.665.533.074.022.167.056.13-.079z"/>
    <path fill="#fff" stroke="#F4F4F4" stroke-width=".095" d="M10.671 6.53c-.48-.354-.856-.09-1.004-.13-.111-.027-.062.04-.019.068.308.196.69.303.986.18.117-.045.123-.057.037-.118zM11.713 6.889c.006-.348-.782-.494-.949-.707-.098-.129-.185-.062-.135.146.074.269.616.566.912.622.178.034.172-.022.172-.061z"/>
    <path fill="#fff" stroke="#F4F4F4" stroke-width=".095" d="M11.689 6.95c-.5-.41-.919-.275-1.073-.314-.154-.033-.215.05.025.219.296.202.752.241.943.202.19-.04.142-.079.105-.107zM12.582 7.55c-.142-.594-.592-.718-.703-.83-.105-.112-.216-.078-.123.191.11.32.474.6.665.667.185.073.173.017.16-.028z"/>
    <path fill="#fff" stroke="#F4F4F4" stroke-width=".095" d="M12.576 7.629c-.364-.533-.838-.516-.986-.589-.142-.079-.24-.011-.05.219.222.28.678.437.888.448.21.011.172-.039.148-.078z"/>
    <path fill="#fff" stroke="#F4F4F4" stroke-width=".095" d="M13.044 8.262c.21-.605-.27-.83-.32-.93-.056-.101-.111-.101-.142.005-.136.432.302.852.37.937.068.078.08.039.092-.012z"/>
    <path fill="#fff" stroke="#F4F4F4" stroke-width=".095" d="M12.945 8.43c-.166-.678-.604-.639-.702-.734-.105-.095-.117-.028-.099.095.05.331.487.555.684.668.062.033.136.073.117-.028zM13.365 9.227c.302-.64-.056-1.071-.167-1.167-.11-.09-.178-.128-.141 0 .05.197-.123.701.141 1.072.087.123.1.24.167.095z"/>
    <path fill="#fff" stroke="#F4F4F4" stroke-width=".095" d="M13.204 9.356c.068-.393-.178-.752-.443-.892-.154-.084-.16-.061-.16.056.012.365.388.668.499.836.104.157.098.04.104 0z"/>
    <path fill="#fff" stroke="#F4F4F4" stroke-width=".095" d="M13.137 10.376c-.222-.74.24-1.166.382-1.25.136-.09.222-.123.16.017-.092.207.006.785-.345 1.15-.11.123-.154.252-.197.083z"/>
    <path fill="#fff" stroke="#F4F4F4" stroke-width=".095" d="M13.186 10.214c.185-.645-.216-1.01-.34-1.082-.116-.073-.19-.101-.135.016.074.18-.006.684.302.998.099.107.136.213.173.068z"/>
    <path fill="#fff" stroke="#F4F4F4" stroke-width=".095" d="M12.958 9.91a.947.947 0 0 0-.19 1.083c.092.163.104.152.19.034.235-.342.093-.836.105-1.054.006-.208-.068-.096-.105-.062z"/>
    <path fill="#fff" stroke="#F4F4F4" stroke-width=".095" d="M13.507 10.427c0 .448-.303.813-.623.925-.185.062-.185.045-.16-.09.086-.504.511-.69.665-.852.148-.157.118-.028.118.017z"/>
    <path fill="#fff" stroke="#F4F4F4" stroke-width=".095" d="M12.36 11.761c.542-.448.253-.762.277-1.054.013-.157-.055-.118-.117-.062-.345.309-.363.858-.29 1.072.031.095.08.084.13.044z"/>
    <path fill="#fff" stroke="#F4F4F4" stroke-width=".095" d="M13.087 11.47c-.179.493-.653.796-1.054.813-.234.011-.228-.006-.148-.151.302-.528.838-.59 1.079-.724.221-.123.141.011.123.062z"/>
    <path fill="#fff" stroke="#F4F4F4" stroke-width=".095" d="M11.614 12.395c.703-.32.56-.852.69-.987.093-.095-.018-.084-.074-.05-.412.218-.745.566-.752.936 0 .14.013.157.136.101z"/>
    <path fill="#fff" stroke="#F4F4F4" stroke-width=".095" d="M10.653 12.99c.888.128 1.3-.483 1.56-.539.135-.028.036-.078-.031-.084-.592-.062-1.344.19-1.572.471-.092.112-.092.135.043.151z"/>
    <path fill="#fff" stroke="#F4F4F4" stroke-width=".095" d="M11.553 12.03c-.179.533-.844.97-1.343 1.004-.235.017-.235-.005-.148-.146.4-.661 1.097-.773 1.343-.942.21-.145.167.034.148.085zM9.68 6.064c.08-.415.751-.443.856-.51.123-.073.105 0 .062.112-.124.292-.543.41-.734.443-.154.023-.203.034-.185-.045z"/>
    <path fill="#fff" stroke="#F4F4F4" stroke-width=".095" d="M9.477 6.075c-.068-.426.597-.628.677-.723.093-.1.105-.04.062.079-.08.252-.37.55-.542.628-.142.067-.185.095-.197.016z"/>
    <path fill="#fff" stroke="#F4F4F4" stroke-width=".095" d="M8.928 6.322c-.062-.51.48-.589.622-.751.093-.101.099-.045.068.073-.062.258-.333.56-.5.656-.129.073-.184.1-.19.022z"/>
    <path fill="#fff" stroke="#F4F4F4" stroke-width=".095" d="M9.094 6.21c.561-.33.955-.146 1.116-.163.154-.016.203.073-.062.208-.327.163-.783.14-.961.078-.185-.067-.13-.1-.093-.123zM8.25 6.434c.173-.55.573-.46.69-.527.117-.067.13-.05.105.073-.05.219-.462.46-.665.533-.074.022-.167.056-.13-.079z"/>
    <path fill="#fff" stroke="#F4F4F4" stroke-width=".095" d="M8.33 6.53c.48-.354.856-.09 1.004-.13.111-.027.062.04.019.068-.309.196-.69.303-.986.18-.117-.045-.124-.057-.037-.118zM7.289 6.889c-.007-.348.782-.494.949-.707.098-.129.185-.062.135.146-.074.269-.616.566-.912.622-.179.034-.172-.022-.172-.061z"/>
    <path fill="#fff" stroke="#F4F4F4" stroke-width=".095" d="M7.313 6.95c.499-.41.918-.275 1.072-.314.154-.033.216.05-.025.219-.295.202-.751.241-.942.202-.192-.04-.142-.079-.105-.107zM6.42 7.55c.141-.594.59-.718.702-.83.105-.112.215-.078.123.191-.11.32-.474.6-.666.667-.184.073-.172.017-.16-.028z"/>
    <path fill="#fff" stroke="#F4F4F4" stroke-width=".095" d="M6.426 7.629c.363-.533.838-.516.986-.589.141-.079.24-.011.049.219-.222.28-.678.437-.888.448-.209.011-.172-.039-.147-.078z"/>
    <path fill="#fff" stroke="#F4F4F4" stroke-width=".095" d="M5.957 8.262c-.21-.605.271-.83.32-.93.056-.101.111-.101.142.005.136.432-.302.852-.37.937-.067.078-.08.039-.092-.012z"/>
    <path fill="#fff" stroke="#F4F4F4" stroke-width=".095" d="M6.056 8.43c.166-.678.604-.639.702-.734.105-.095.117-.028.099.095-.05.331-.487.555-.684.668-.062.033-.136.073-.117-.028zM5.637 9.227c-.302-.64.055-1.071.166-1.167.111-.09.18-.128.142 0-.05.197.123.701-.142 1.072-.086.123-.098.24-.166.095z"/>
    <path fill="#fff" stroke="#F4F4F4" stroke-width=".095" d="M5.797 9.356c-.068-.393.179-.752.444-.892.154-.084.16-.061.16.056-.012.365-.388.668-.5.836-.104.157-.098.04-.104 0z"/>
    <path fill="#fff" stroke="#F4F4F4" stroke-width=".095" d="M5.865 10.376c.222-.74-.24-1.166-.382-1.25-.136-.09-.222-.123-.16.017.092.207-.007.785.345 1.15.11.123.148.252.197.083z"/>
    <path fill="#fff" stroke="#F4F4F4" stroke-width=".095" d="M5.816 10.214c-.185-.645.215-1.01.338-1.082.118-.073.192-.101.136.016-.074.18.006.684-.302.998-.099.107-.135.213-.172.068z"/>
    <path fill="#fff" stroke="#F4F4F4" stroke-width=".095" d="M6.044 9.91a.947.947 0 0 1 .19 1.083c-.092.163-.104.152-.19.034-.234-.342-.093-.836-.105-1.054-.006-.208.068-.096.105-.062z"/>
    <path fill="#fff" stroke="#F4F4F4" stroke-width=".095" d="M5.495 10.427c0 .448.302.813.622.925.185.062.185.045.16-.09-.086-.504-.511-.69-.665-.852-.148-.157-.117-.028-.117.017z"/>
    <path fill="#fff" stroke="#F4F4F4" stroke-width=".095" d="M6.64 11.761c-.541-.448-.252-.762-.276-1.054-.013-.157.055-.118.117-.062.345.309.363.858.29 1.072-.031.095-.08.084-.13.044z"/>
    <path fill="#fff" stroke="#F4F4F4" stroke-width=".095" d="M5.915 11.47c.178.493.653.796 1.053.813.234.011.228-.006.148-.151-.302-.528-.838-.59-1.078-.724-.222-.123-.142.011-.123.062z"/>
    <path fill="#fff" stroke="#F4F4F4" stroke-width=".095" d="M7.387 12.395c-.703-.32-.56-.852-.69-.987-.093-.095.018-.084.074-.05.412.218.745.566.751.936 0 .14-.012.157-.135.101z"/>
    <path fill="#fff" stroke="#F4F4F4" stroke-width=".095" d="M8.349 12.99c-.888.128-1.3-.483-1.56-.539-.135-.028-.037-.078.031-.084.592-.062 1.344.19 1.572.471.092.112.092.135-.043.151z"/>
    <path fill="#fff" stroke="#F4F4F4" stroke-width=".095" d="M7.449 12.03c.178.533.844.97 1.343 1.004.234.017.234-.005.148-.146-.4-.661-1.097-.773-1.343-.942-.21-.145-.167.034-.148.085z"/>
    <path fill="#006233" d="M10.541 6.58c-.117-.078-.548-.033-.628-.084.154.118.499.034.628.084zM11.583 6.782c-.093-.151-.641-.252-.721-.387.142.258.567.224.72.387zM11.503 6.956c-.203-.18-.678-.107-.82-.213.333.275.518.061.82.213zM10.314 6.16c.13.061.29.123.37.269-.093-.112-.26-.157-.395-.253.006 0 .019-.01.025-.016zM12.335 7.315c-.08-.168-.364-.354-.388-.415.08.218.314.269.388.415zM12.408 7.612c-.246-.353-.634-.314-.788-.449.117.13.56.213.788.449zM12.982 8.156c.018-.376-.29-.516-.302-.73-.006.253.314.595.302.73zM12.828 8.358c-.062-.326-.481-.348-.555-.539 0 .18.493.365.555.539zM13.173 8.173c.222.246.068.622.16.897-.11-.202-.055-.707-.16-.897zM12.81 9.227c.332.325.197.69.332.847-.166-.22-.141-.645-.332-.847zM13.5 9.272c-.284.286-.111.717-.26.92.167-.175.143-.707.26-.92zM13.142 9.272c-.037-.331-.376-.505-.406-.684-.037.18.326.46.406.684zM12.97 10.062c.055.23-.149.724-.087.875-.135-.263.117-.762.086-.875zM13.407 10.59c-.136.409-.407.38-.493.627.062-.235.42-.448.493-.628zM12.526 10.78c-.179.275-.03.589-.179.785.21-.196.099-.56.179-.785zM12.957 11.531c-.215.365-.66.331-.838.595.179-.331.727-.387.838-.595zM12.174 11.487c-.382.24-.265.493-.554.762.363-.269.332-.566.554-.762zM11.996 12.462c-.37-.01-.9.427-1.22.393.32.061.911-.331 1.22-.393zM11.398 12.07c-.025.342-.986.56-1.09.79.116-.302.96-.527 1.09-.79zM9.222 5.761c-.123-.095-.27-.173-.314-.269.031.124.154.213.278.298.012-.006.024-.023.036-.029zM9.013 5.862c-.19-.084-.412-.078-.511-.196.062.118.271.163.45.224a.3.3 0 0 1 .061-.028zM8.459 6.58c.117-.078.548-.033.628-.084-.154.118-.5.034-.628.084zM7.417 6.782c.092-.151.64-.252.721-.387-.142.258-.567.224-.721.387zM7.498 6.956c.203-.18.677-.107.82-.213-.334.275-.518.061-.82.213zM8.317 6.429c.117-.225.45-.253.536-.387-.13.202-.413.235-.536.387zM9.266 6.232c.339-.145.671-.022.832-.09-.198.096-.666.051-.832.09zM6.665 7.315c.08-.168.364-.354.388-.415-.08.218-.314.269-.388.415zM6.591 7.612c.247-.353.635-.314.79-.449-.118.13-.562.213-.79.449zM6.018 8.156c-.019-.376.29-.516.302-.73.006.253-.314.595-.302.73zM6.172 8.358c.062-.326.481-.348.555-.539 0 .18-.493.365-.555.539zM5.827 8.173c-.222.246-.068.622-.16.897.11-.202.055-.707.16-.897zM6.19 9.227c-.333.325-.197.69-.333.847.167-.22.142-.645.333-.847zM5.5 9.272c.284.286.111.717.26.92-.167-.175-.142-.707-.26-.92zM5.857 9.272c.037-.331.376-.505.407-.684.037.18-.326.46-.407.684zM6.03 10.062c-.055.23.149.724.087.875.136-.263-.117-.762-.086-.875zM5.592 10.59c.136.409.407.38.493.627-.061-.235-.419-.448-.493-.628zM6.474 10.78c.178.275.03.589.178.785-.21-.196-.098-.56-.178-.785zM6.042 11.531c.216.365.66.331.839.595-.18-.331-.728-.387-.839-.595zM6.826 11.487c.382.24.265.493.554.762-.363-.269-.332-.566-.554-.762zM7.004 12.462c.37-.01.9.427 1.22.393-.32.061-.911-.331-1.22-.393zM7.602 12.07c.025.342.986.56 1.09.79-.116-.302-.96-.527-1.09-.79zM9 6.244c.074-.303.444-.36.493-.539-.018.191-.456.404-.493.539zM10.092 5.492c-.056.23-.456.36-.512.533.019-.235.431-.37.512-.533zM9.777 6.036c.191-.28.586-.207.721-.37-.098.19-.585.196-.72.37z"/>
    <path stroke="#F7C608" stroke-linecap="round" stroke-linejoin="round" stroke-width=".096" d="M12.386 9.502c0 1.456-1.297 2.636-2.897 2.636-1.6 0-2.898-1.18-2.898-2.636 0-1.457 1.297-2.637 2.898-2.637 1.6 0 2.897 1.18 2.897 2.637z"/>
    <path fill="#F7C608" d="M8.92 12.14l-.01.032c-.007.022-.03.033-.056.032-.059-.016-.137-.03-.208-.05l.066-.204c.077.02.155.036.21.044.024.007.036.028.03.05l-.01.026-.022.07zm-.476-.197l.01-.033c.008-.021.03-.033.054-.026.058.021.127.045.204.066l-.066.204a2.67 2.67 0 0 1-.205-.06c-.022-.012-.028-.054-.021-.076"/>
    <path fill="#006233" d="M8.88 12.122l-.008.023c-.005.016-.024.023-.045.022-.049-.013-.114-.027-.173-.043l.047-.146c.064.017.13.03.175.039.02.005.03.02.026.036l-.007.02-.016.05zm-.4-.156l.008-.024c.005-.015.024-.023.043-.017.048.017.106.036.17.053l-.047.146c-.059-.015-.118-.031-.17-.05-.02-.008-.025-.04-.02-.055"/>
    <path fill="#F7C608" d="M8.128 11.884l-.02.029c-.014.018-.04.024-.063.016-.052-.03-.123-.065-.185-.101l.127-.18c.067.04.138.075.188.097.02.012.026.036.013.055l-.017.023-.043.061zm-.396-.31l.02-.03a.044.044 0 0 1 .06-.01c.048.034.107.075.175.115l-.127.179a2.506 2.506 0 0 1-.178-.111c-.018-.017-.01-.059.003-.078"/>
    <path fill="#006233" d="M8.094 11.857l-.014.02c-.01.014-.03.016-.05.01-.042-.026-.1-.055-.153-.085l.091-.129c.056.033.114.063.156.082.017.01.023.027.013.041l-.012.017-.03.044zm-.333-.252l.014-.02c.01-.014.03-.017.047-.007.04.029.09.062.146.095l-.09.129c-.052-.03-.104-.061-.15-.092-.014-.013-.01-.045 0-.058"/>
    <path fill="#F7C608" d="M7.446 11.436l-.028.022c-.018.015-.044.013-.065 0-.04-.043-.098-.094-.146-.145l.177-.14c.052.056.11.107.15.142.017.016.015.04-.004.055l-.023.018-.06.048zm-.283-.4l.028-.022a.045.045 0 0 1 .06.004c.037.046.08.1.133.155l-.177.14a2.296 2.296 0 0 1-.137-.152c-.011-.02.01-.059.028-.074"/>
    <path fill="#006233" d="M7.423 11.401l-.02.016c-.014.01-.034.008-.05-.004l-.121-.12.127-.1c.043.045.09.088.124.118.013.014.013.032 0 .043l-.017.013-.043.034zm-.242-.328l.02-.015c.013-.011.033-.008.047.006a2 2 0 0 0 .11.129l-.126.1a2.281 2.281 0 0 1-.114-.127c-.01-.016.003-.045.016-.056"/>
    <path fill="#F7C608" d="M6.93 10.831l-.033.014c-.022.01-.047.001-.063-.017-.025-.051-.064-.115-.095-.176l.213-.089a1.8 1.8 0 0 0 .1.174c.011.02.002.043-.02.052l-.029.012-.072.03zm-.147-.456l.033-.014c.023-.01.047-.001.057.02.02.053.046.116.079.182l-.213.089a2.13 2.13 0 0 1-.084-.181c-.005-.023.027-.054.05-.064"/>
    <path fill="#006233" d="M6.919 10.792l-.025.01c-.016.006-.034-.001-.046-.017-.022-.042-.053-.096-.079-.147l.152-.063c.028.055.06.109.083.145.008.017.003.035-.013.042l-.02.008-.052.022zm-.131-.377l.024-.01c.016-.006.034.001.043.018.017.044.039.097.066.152l-.152.063c-.025-.05-.051-.101-.07-.15-.005-.018.016-.043.033-.05"/>
    <path fill="#F7C608" d="M6.624 10.119l-.037.005a.053.053 0 0 1-.055-.033c-.009-.055-.026-.127-.037-.193l.232-.03c.011.071.029.143.043.192.003.022-.012.041-.037.044l-.03.004-.08.01zm-.001-.476l.036-.005c.025-.003.046.011.05.033.002.057.006.124.018.196l-.232.03a2.04 2.04 0 0 1-.024-.194c.002-.023.042-.046.067-.049"/>
    <path fill="#006233" d="M6.624 10.078l-.026.003c-.018.003-.033-.01-.04-.027-.007-.047-.021-.106-.03-.161l.166-.022c.01.06.023.12.034.16.003.019-.008.034-.025.037l-.022.002-.057.008zm-.009-.395l.026-.003c.018-.003.033.01.036.028.003.047.008.103.017.163l-.166.022c-.009-.056-.017-.111-.021-.163.001-.019.03-.036.047-.039"/>
    <path fill="#F7C608" d="M6.55 9.356l-.037-.004a.05.05 0 0 1-.042-.046c.008-.055.014-.128.024-.195l.232.03a1.7 1.7 0 0 0-.018.196c-.004.023-.025.037-.05.034l-.03-.004-.079-.01zm.147-.456l.036.004c.025.004.04.023.037.045-.015.055-.032.12-.043.193l-.232-.03c.01-.067.021-.134.037-.194.01-.022.055-.033.08-.03"/>
    <path fill="#006233" d="M6.563 9.317l-.026-.003c-.018-.002-.028-.018-.03-.037.008-.046.013-.107.021-.162l.166.022c-.01.06-.014.12-.017.162-.003.019-.018.031-.035.029l-.022-.003-.057-.008zm.114-.38l.026.003c.018.002.028.018.025.036-.011.046-.024.1-.034.16l-.166-.021c.01-.055.018-.11.03-.161.007-.018.04-.028.058-.025"/>
    <path fill="#F7C608" d="M6.715 8.607l-.033-.014c-.023-.01-.032-.032-.027-.055.025-.05.053-.12.084-.18l.213.088c-.034.066-.061.135-.079.183-.01.02-.034.029-.057.02l-.028-.012-.073-.03zm.282-.401l.034.014c.022.01.032.031.021.052a1.904 1.904 0 0 0-.1.174l-.213-.089c.03-.06.061-.122.095-.176.016-.018.063-.017.085-.008"/>
    <path fill="#006233" d="M6.74 8.573l-.024-.01c-.016-.007-.022-.025-.017-.043.021-.043.045-.1.07-.15l.153.063a1.744 1.744 0 0 0-.067.152c-.008.017-.026.024-.043.018l-.02-.009-.052-.021zm.227-.337l.024.01c.016.007.022.025.013.042-.025.04-.054.09-.082.145l-.153-.063c.026-.051.051-.102.079-.147.012-.016.047-.017.063-.01"/>
    <path fill="#F7C608" d="M7.106 7.929l-.028-.022c-.019-.015-.02-.039-.01-.06.041-.042.089-.1.137-.152l.177.14c-.052.055-.1.114-.132.156a.045.045 0 0 1-.06.004l-.024-.019-.06-.047zm.394-.313l.028.022c.02.015.02.039.005.056a2.056 2.056 0 0 0-.15.14l-.178-.139c.049-.05.097-.101.146-.144.021-.014.066 0 .084.014"/>
    <path fill="#006233" d="M7.14 7.902l-.02-.015c-.014-.011-.014-.03-.003-.046.033-.035.074-.084.114-.126l.126.1a1.873 1.873 0 0 0-.11.128c-.014.015-.034.017-.047.007l-.017-.013-.043-.035zm.322-.264l.02.016c.013.01.013.028 0 .043a2.02 2.02 0 0 0-.125.118l-.126-.1c.04-.042.08-.085.12-.12.017-.012.05-.005.064.006"/>
    <path fill="#F7C608" d="M7.69 7.378l-.02-.028c-.013-.019-.007-.042.01-.059.052-.03.116-.074.178-.11l.127.178c-.068.04-.132.084-.175.116a.045.045 0 0 1-.06-.012l-.016-.023-.044-.062zm.476-.198l.02.028c.013.02.007.042-.013.055-.055.025-.121.057-.188.096l-.127-.179c.062-.036.124-.073.185-.101.024-.008.063.016.076.035"/>
    <path fill="#006233" d="M7.732 7.362l-.015-.02c-.01-.014-.003-.031.011-.045.044-.025.097-.06.149-.091l.09.128c-.055.033-.11.069-.146.095-.017.01-.037.008-.046-.006l-.012-.017-.031-.044zm.39-.171l.015.02c.01.014.003.031-.014.041-.045.022-.1.05-.155.082l-.091-.128c.052-.03.103-.06.153-.085.02-.007.05.009.059.023"/>
    <path fill="#F7C608" d="M8.421 7l-.01-.032c-.007-.021.005-.042.027-.054.06-.016.135-.042.206-.06l.066.204c-.077.02-.152.046-.204.066-.023.006-.046-.005-.053-.027l-.01-.027L8.422 7zm.518-.068l.01.032c.007.022-.005.043-.029.05a2.33 2.33 0 0 0-.21.044l-.066-.205c.07-.019.141-.038.208-.05.026 0 .056.032.062.054"/>
    <path fill="#006233" d="M8.466 6.996l-.007-.023c-.005-.016.006-.031.025-.04.049-.013.111-.034.17-.05l.048.146a2.156 2.156 0 0 0-.17.054c-.02.005-.038-.002-.043-.018l-.006-.02-.017-.05zm.428-.065l.008.023c.005.016-.006.031-.026.037-.05.009-.11.021-.174.038l-.048-.146c.06-.016.118-.032.174-.043.02-.001.044.022.05.038"/>
    <path fill="#F7C608" d="M9.24 6.826v-.034c0-.022.018-.039.043-.045.062 0 .142-.005.216-.005v.213c-.08 0-.16.005-.216.01-.024 0-.043-.016-.043-.038V6.826zm.518.067v.033c0 .023-.019.04-.043.04a2.362 2.362 0 0 0-.216-.011v-.213c.074 0 .148 0 .216.005.024.006.043.045.043.067"/>
    <path fill="#006233" d="M9.284 6.833v-.025c0-.016.016-.028.036-.032.051 0 .118-.004.18-.004v.153c-.067 0-.134.004-.18.008-.02 0-.036-.012-.036-.028v-.072zm.43.047v.025c0 .016-.015.028-.035.028a2.329 2.329 0 0 0-.18-.008v-.153c.062 0 .123 0 .18.004.02.004.036.032.036.048"/>
    <path fill="#F7C608" d="M10.024 6.863l.01-.032c.007-.021.03-.033.055-.032.06.015.138.03.21.048l-.065.205a2.224 2.224 0 0 0-.21-.043c-.024-.006-.037-.027-.03-.049l.008-.026.022-.07zm.478.194l-.01.032c-.007.022-.03.033-.054.027a2.304 2.304 0 0 0-.204-.064l.064-.205c.072.018.143.037.206.059.022.012.028.054.021.075"/>
    <path fill="#006233" d="M10.064 6.88l.007-.022c.005-.016.024-.023.045-.022.049.013.114.025.173.04l-.046.147a2.196 2.196 0 0 0-.174-.037c-.02-.005-.031-.02-.027-.036l.007-.019.015-.05zm.4.154l-.007.024c-.005.015-.024.023-.043.018a2.272 2.272 0 0 0-.17-.053l.045-.146c.06.015.119.03.172.048.018.01.025.04.02.055"/>
    <path fill="#F7C608" d="M10.819 7.113l.02-.029c.013-.019.038-.024.063-.017.052.03.123.064.185.1l-.125.18a2.12 2.12 0 0 0-.189-.095c-.02-.012-.026-.035-.013-.054l.016-.024.043-.061zm.398.308l-.02.028a.045.045 0 0 1-.059.013 2.152 2.152 0 0 0-.176-.115l.125-.18c.063.036.125.072.18.11.017.016.01.058-.003.077"/>
    <path fill="#006233" d="M10.852 7.14l.014-.02c.01-.014.03-.017.05-.01.043.025.101.054.153.084l-.089.129a2.072 2.072 0 0 0-.156-.08c-.018-.01-.024-.028-.014-.042l.012-.017.03-.044zm.336.25l-.014.02c-.01.014-.03.016-.047.006a2.14 2.14 0 0 0-.147-.093l.09-.13c.052.03.104.06.149.091.015.013.012.044.002.058"/>
    <path fill="#F7C608" d="M11.505 7.556l.027-.023c.019-.014.045-.013.066 0 .04.042.098.093.147.144l-.175.14a1.966 1.966 0 0 0-.152-.14c-.017-.016-.015-.04.003-.055l.023-.018.06-.048zm.286.397l-.027.023a.045.045 0 0 1-.061-.004c-.036-.046-.08-.1-.133-.154l.175-.141c.049.05.098.1.138.15.012.021-.008.06-.027.074"/>
    <path fill="#006233" d="M11.527 7.59l.02-.016c.014-.01.034-.008.05.004.034.035.082.078.122.12l-.125.1a1.9 1.9 0 0 0-.126-.117c-.013-.014-.014-.032 0-.043l.016-.013.043-.035zm.246.326l-.02.016c-.014.01-.034.008-.047-.006a1.982 1.982 0 0 0-.112-.128l.125-.1c.04.042.082.084.116.125.01.016-.003.045-.016.056"/>
    <path fill="#F7C608" d="M12.025 8.156l.034-.014c.022-.01.047-.001.063.017.026.05.065.114.097.175l-.212.09a1.803 1.803 0 0 0-.103-.173c-.01-.02-.002-.042.02-.052l.029-.012.072-.03zm.152.456l-.033.014a.044.044 0 0 1-.057-.019 1.839 1.839 0 0 0-.08-.183l.212-.09c.03.061.062.122.085.18.005.023-.026.055-.048.064"/>
    <path fill="#006233" d="M12.037 8.196l.024-.01c.016-.007.035 0 .047.016.022.042.054.095.08.146l-.152.064a1.795 1.795 0 0 0-.083-.144c-.01-.017-.004-.035.012-.042l.02-.008.052-.022zm.134.375l-.023.01c-.017.007-.035 0-.044-.017a1.842 1.842 0 0 0-.068-.152l.152-.064c.026.05.052.101.072.15.005.018-.017.043-.033.05"/>
    <path fill="#F7C608" d="M12.339 8.866l.036-.005a.053.053 0 0 1 .055.032c.01.056.028.127.04.193l-.232.033a1.709 1.709 0 0 0-.045-.193c-.004-.022.012-.041.036-.044l.03-.005.08-.01zm.005.476l-.037.005c-.024.004-.045-.01-.049-.033a1.783 1.783 0 0 0-.02-.195l.231-.033c.011.067.022.133.027.195-.003.023-.043.046-.067.05"/>
    <path fill="#006233" d="M12.338 8.907l.026-.004c.018-.002.033.01.04.028.008.046.022.105.031.16l-.165.024c-.01-.06-.024-.12-.036-.16-.003-.019.008-.034.025-.037l.022-.003.057-.008zm.013.395l-.027.003c-.017.003-.032-.01-.035-.028a1.76 1.76 0 0 0-.02-.162l.166-.023c.01.055.02.11.023.162 0 .019-.029.037-.046.04"/>
    <path fill="#F7C608" d="M12.42 9.628l.037.004a.05.05 0 0 1 .043.045c-.009.056-.013.129-.023.196l-.232-.029c.01-.072.015-.145.017-.196.003-.022.024-.037.048-.034l.03.004.08.01zm-.142.458l-.037-.005c-.024-.003-.04-.022-.037-.044.014-.055.03-.12.041-.193l.232.029c-.01.066-.02.133-.035.193-.01.022-.055.033-.079.03"/>
    <path fill="#006233" d="M12.406 9.667l.027.003c.017.002.028.018.03.037-.007.046-.012.107-.02.162l-.166-.02c.009-.06.014-.121.015-.163.003-.019.018-.03.036-.029l.022.003.056.007zm-.11.382l-.026-.003c-.017-.003-.028-.018-.025-.037.01-.045.023-.1.032-.16l.166.02c-.008.056-.016.111-.028.161-.007.018-.04.028-.057.026"/>
    <path fill="#F7C608" d="M12.262 10.38l.034.013c.022.01.032.031.027.054-.025.051-.052.12-.082.182l-.214-.087c.033-.067.06-.136.077-.184.01-.02.034-.029.057-.02l.028.012.073.03zm-.278.402l-.034-.014c-.022-.009-.032-.03-.022-.051.03-.05.067-.108.1-.175l.213.087c-.03.061-.06.123-.093.177-.016.018-.063.017-.085.008"/>
    <path fill="#006233" d="M12.238 10.414l.024.01c.016.006.022.024.018.042-.021.043-.044.1-.07.15l-.153-.061c.028-.056.05-.113.066-.153.008-.017.026-.025.042-.018l.02.008.053.022zm-.224.338l-.024-.01c-.016-.007-.022-.024-.014-.041a1.86 1.86 0 0 0 .081-.146l.153.062c-.025.05-.05.102-.077.147-.012.016-.046.017-.063.01"/>
    <path fill="#F7C608" d="M11.878 11.06l.028.022c.019.014.021.038.01.059-.04.043-.087.102-.135.153l-.179-.138c.052-.056.1-.115.13-.157a.045.045 0 0 1 .062-.004l.023.018.061.047zm-.392.315l-.028-.021c-.019-.015-.02-.039-.005-.056.045-.039.098-.087.15-.142l.178.138a2.321 2.321 0 0 1-.145.146c-.02.013-.065 0-.084-.014"/>
    <path fill="#006233" d="M11.844 11.086l.02.016c.014.01.014.029.004.046-.033.035-.073.084-.113.127l-.128-.1c.044-.045.084-.094.11-.129.013-.014.033-.017.047-.006l.017.013.043.033zm-.319.268l-.02-.016c-.014-.01-.014-.029 0-.043a2.03 2.03 0 0 0 .122-.12l.128.1c-.04.042-.08.085-.12.121-.016.012-.05.004-.063-.006"/>
    <path fill="#F7C608" d="M11.3 11.615l.02.028c.013.019.008.042-.01.059-.05.03-.114.075-.176.112l-.129-.178c.067-.04.131-.085.174-.117a.045.045 0 0 1 .06.011l.017.024.044.06zm-.474.202l-.02-.028c-.014-.02-.008-.042.012-.055a2.22 2.22 0 0 0 .187-.098l.129.178c-.062.037-.124.074-.184.103-.024.008-.063-.016-.077-.035"/>
    <path fill="#006233" d="M11.258 11.631l.014.02c.01.014.005.031-.01.045l-.148.093-.092-.128c.056-.033.11-.07.145-.096.018-.01.037-.008.047.006l.012.017.032.043zm-.39.175l-.014-.02c-.01-.014-.004-.031.013-.042.046-.022.1-.05.155-.083l.092.128c-.051.03-.103.061-.152.086-.02.007-.05-.009-.06-.022"/>
    <path fill="#F7C608" d="M10.571 11.998l.011.033c.007.021-.005.042-.027.054-.059.016-.134.043-.204.062l-.069-.204a2.16 2.16 0 0 0 .203-.067c.024-.007.047.004.054.026l.01.027.022.07zm-.516.073l-.011-.032c-.007-.022.005-.043.028-.05.061-.01.134-.024.21-.046l.069.204c-.071.02-.142.04-.209.052-.025.001-.055-.031-.062-.053"/>
    <path fill="#006233" d="M10.527 12.004l.008.023c.005.015-.006.03-.024.04-.05.013-.112.035-.17.051l-.05-.146a2.15 2.15 0 0 0 .17-.055c.02-.005.038.002.043.018l.006.019.017.05zm-.427.067l-.008-.023c-.005-.015.006-.03.025-.036.05-.01.11-.022.174-.04l.05.146a2.625 2.625 0 0 1-.174.044c-.02.001-.044-.021-.05-.037"/>
    <path fill="#F7C608" d="M9.755 12.18v.034c0 .022-.018.04-.042.045-.062 0-.142.007-.216.008l-.002-.213c.08-.001.16-.007.215-.013.025 0 .044.016.044.038V12.18zm-.518-.063v-.033c-.001-.022.017-.04.042-.04.062.005.136.01.216.01l.002.213a2.72 2.72 0 0 1-.216-.004c-.024-.005-.043-.045-.044-.067"/>
    <path fill="#006233" d="M9.71 12.174l.001.024c0 .016-.015.028-.035.032-.052 0-.118.005-.18.006l-.001-.153c.066 0 .133-.005.179-.009.02 0 .036.011.036.028v.072zm-.43-.044v-.025c0-.016.015-.028.035-.028.051.004.113.007.18.006l.001.153c-.061 0-.123 0-.18-.003-.02-.003-.035-.031-.036-.047"/>
</svg>
