<svg xmlns="http://www.w3.org/2000/svg" width="20" height="20" fill="none" viewBox="0 0 20 20">
    <path fill="#D80027" d="M20 3.333H0v13.334h20V3.333z"/>
    <path fill="#FFDA44" d="M6.99 7.405l.572 1.762h1.852l-1.498 1.089.572 1.762-1.499-1.089-1.499 1.089.573-1.762-1.499-1.09h1.853l.572-1.761zM10.598 13.265l-.563-.408-.562.408.215-.66-.562-.409h.695l.214-.66.215.66h.695l-.562.409.215.66zM12.064 11.247h-.695l-.214.66-.215-.66h-.695l.562-.408-.215-.661.563.408.562-.408-.215.66.562.41zM12.064 8.752l-.562.409.215.66-.562-.408-.563.409.215-.661-.562-.408h.695l.215-.661.214.66h.695zM10.598 6.734l-.215.661.562.408h-.695l-.215.661-.214-.66h-.695l.562-.409-.215-.66.562.408.563-.409z"/>
</svg>
