<svg xmlns="http://www.w3.org/2000/svg" width="20" height="20" fill="none" viewBox="0 0 20 20">
    <path fill="#F0F0F0" d="M20 3.333H0v13.333h20V3.333z"/>
    <path fill="#2E52B2" d="M12.5 8.557h-1.667L10 7.113l-.833 1.444H7.5L8.333 10 7.5 11.443h1.667L10 12.887l.833-1.444H12.5L11.667 10l.833-1.443zM11.024 10l-.512.887H9.488L8.976 10l.512-.887h1.024l.512.887zM10 8.227l.19.33h-.38l.19-.33zm-1.536.886h.381l-.19.33-.19-.33zm0 1.774l.19-.33.191.33h-.38zm1.536.886l-.19-.33h.38l-.19.33zm1.536-.886h-.381l.19-.33.19.33zm-.381-1.774h.38l-.19.33-.19-.33zM20 4.167H0v1.666h20V4.166zM20 14.166H0v1.667h20v-1.667z"/>
</svg>
