<svg xmlns="http://www.w3.org/2000/svg" width="20" height="20" fill="none" viewBox="0 0 20 20">
    <path fill="#F7F7F7" d="M20 3.333H0v13.334h20V3.333z"/>
    <path fill="#D80027" d="M12.435 10c0 .608-1.09 2.13-2.435 2.13-1.344 0-2.435-1.522-2.435-2.13a2.435 2.435 0 1 1 4.87 0z"/>
    <path fill="#0052B4" d="M12.435 10a2.435 2.435 0 0 1-4.87 0"/>
    <path fill="#000" d="M13.228 11.507l-.646.645.43.43.646-.645-.43-.43zM12.152 12.582l-.646.646.43.43.646-.646-.43-.43zM14.52 12.797l-.646.646.43.43.646-.646-.43-.43zM13.443 13.873l-.646.646.43.43.646-.645-.43-.43zM13.874 12.152l-.646.645.43.43.646-.645-.43-.43zM12.797 13.228l-.645.645.43.43.646-.645-.43-.43zM12.152 6.126l1.722 1.722.43-.43-1.721-1.722-.43.43zM11.507 6.772l.645.645.43-.43-.645-.646-.43.43zM12.582 7.848l.646.645.43-.43-.645-.646-.43.43zM12.797 5.48l.646.646.43-.43-.645-.646-.43.43zM13.874 6.556l.646.646.43-.43-.646-.646-.43.43zM7.203 14.519L5.48 12.797l-.43.43 1.721 1.722.43-.43zM7.848 13.873l-.646-.645-.43.43.645.646.43-.43zM6.772 12.797l-.646-.645-.43.43.645.646.43-.43zM8.494 13.228l-1.722-1.722-.43.43 1.721 1.722.43-.43zM5.48 7.202L7.203 5.48l-.43-.43L5.05 6.77l.43.43zM6.126 7.848l1.722-1.722-.43-.43-1.722 1.721.43.43zM6.772 8.493l1.721-1.722-.43-.43L6.34 8.063l.43.43z"/>
</svg>
