<svg xmlns="http://www.w3.org/2000/svg" width="14" height="14" fill="none" viewBox="0 0 14 14">
    <path fill="#fff" d="M14 0H0v14h14V0z"/>
    <path fill="#FFE000" d="M7 0H0v14h7V0z"/>
    <path fill="#fff" stroke="#000" stroke-linecap="round" stroke-linejoin="round" stroke-width=".018" d="M9.973 5.546l.09.021.144.023.066.008-.012.28s-.015.185-.043.273c-.02.066-.088.186-.088.186l-.043.066-.254-.22s.043-.061.059-.095c.02-.043.043-.134.043-.134l.025-.145.013-.183v-.08zm-.319.848l.231.202s-.047.041-.075.054a.412.412 0 0 1-.176.04.325.325 0 0 1-.126-.034c-.088-.04-.185-.082-.241-.16a.166.166 0 0 1-.028-.1c.001-.039.035-.11.035-.11s.014.047.03.066a.275.275 0 0 0 .098.07.238.238 0 0 0 .202.006.26.26 0 0 0 .05-.034z"/>
    <path fill="#fff" stroke="#000" stroke-linecap="round" stroke-linejoin="round" stroke-width=".018" d="M9.287 4.915s.019.037.024.057c.01.033.017.069.016.104 0 .035-.008.07-.017.104a.958.958 0 0 1-.058.147c-.014.03-.034.058-.048.088-.023.05-.04.101-.06.151-.016.042-.038.082-.05.125a1.175 1.175 0 0 0-.034.176 1.196 1.196 0 0 0 0 .337c.011.06.028.119.054.173.022.044.05.084.084.12.027.03.06.055.094.075.031.02.067.03.101.044l.142.052s-.131-.065-.177-.12a.383.383 0 0 1-.072-.162.635.635 0 0 1-.007-.205c.008-.073.03-.144.052-.214.023-.074.056-.145.086-.217.022-.051.046-.102.067-.153.025-.062.05-.123.07-.186.011-.039.026-.077.03-.117a.426.426 0 0 0-.012-.131.498.498 0 0 0-.067-.172.23.23 0 0 0-.082-.073c-.033-.017-.07-.03-.106-.024-.012.003-.03.02-.03.02z"/>
    <path fill="#fff" stroke="#000" stroke-linecap="round" stroke-linejoin="round" stroke-width=".018" d="M9.584 5.295s.025-.1.03-.152a.71.71 0 0 0-.004-.132c-.005-.05-.008-.1-.027-.146a.383.383 0 0 0-.214-.207.516.516 0 0 0-.157-.027.728.728 0 0 0-.213.023.556.556 0 0 0-.065.031l.167.275s.053-.031.082-.039a.307.307 0 0 1 .095-.007.273.273 0 0 1 .095.018.414.414 0 0 1 .182.197c.018.043.02.09.027.136l.002.03z"/>
    <path fill="#FFE000" stroke="#000" stroke-linecap="round" stroke-linejoin="round" stroke-width=".018" d="M9.615 5.077s-.03-.092-.059-.131a.357.357 0 0 0-.124-.111c-.053-.026-.174-.035-.174-.035l.064.118-.112-.002-.058-.098-.108.049-.053-.088.114-.053-.053-.085.115-.01.05.082s.088 0 .132.009a.326.326 0 0 1 .154.08c.025.024.049.05.067.08a.585.585 0 0 1 .036.094l.009.101z"/>
    <path fill="#FFE000" stroke="#000" stroke-linecap="round" stroke-linejoin="round" stroke-width=".018" d="M8.856 4.733l.179.26-.179-.26zm.078-.046l-.084.05-.08.06.173.264.077-.059.08-.046-.166-.27zM9.26 5.8l.1-.206.107.043.044-.107-.107-.05.055-.119-.078-.035-.06.114-.107-.045-.047.112.104.044-.096.205.085.045zM10.062 5.739l.102-.002v.118l.098.004-.017.12-.091-.006s-.015.07-.03.104c-.013.034-.053.097-.053.097l-.109-.027s.04-.062.055-.095a.988.988 0 0 0 .031-.093l-.111-.014.019-.113.101.007.005-.1z"/>
    <path fill="#fff" stroke="#000" stroke-linecap="round" stroke-linejoin="round" stroke-width=".018" d="M9.836 4.12l-.153.164.094.285.055.2-.156.146.284.394.903-.086.29-.311-.11-.1-.003-.243.095-.285-.143-.144-.128-.343s-.027-.095-.05-.14c-.013-.025-.032-.048-.05-.071-.023-.028-.046-.056-.073-.078a.479.479 0 0 0-.082-.05c-.03-.017-.06-.034-.094-.042-.035-.01-.106-.009-.106-.009s-.072 0-.106.009c-.034.008-.064.025-.095.041a.475.475 0 0 0-.081.051c-.028.022-.05.05-.072.078-.019.023-.038.046-.052.072-.022.044-.05.14-.05.14l-.117.321z"/>
    <path fill="#F00" stroke="#000" stroke-linecap="round" stroke-linejoin="round" stroke-width=".022" d="M10.41 5.606c.302 0 .547-.073.547-.163 0-.09-.245-.162-.547-.162-.302 0-.546.073-.546.162 0 .09.244.163.546.163z"/>
    <path fill="#FFE000" stroke="#000" stroke-linecap="round" stroke-linejoin="round" stroke-width=".018" d="M10.994 5.226l-.028-.023a.363.363 0 0 0-.067-.034c-.031-.012-.065-.018-.097-.026-.038-.009-.075-.018-.114-.023a1.108 1.108 0 0 0-.135-.009c-.048 0-.144.007-.144.007s-.096-.007-.144-.007c-.045 0-.09.003-.135.01-.038.004-.076.013-.114.022-.032.008-.066.014-.097.026a.361.361 0 0 0-.067.034.32.32 0 0 0-.028.023h1.17zm.055-.24s-.029-.03-.048-.033a.05.05 0 0 0-.037.009.073.073 0 0 0-.023.085c.005.011.012.024.024.029.027.01.086-.012.086-.012l-.002-.078zm.03-.02c.032.001.043.018.052.037l-.053-.037zm-1.31.02l-.002.078s.06.022.086.012c.012-.005.02-.018.024-.03a.073.073 0 0 0-.023-.084.05.05 0 0 0-.037-.009c-.02.004-.048.033-.048.033zm-.029-.02c-.032.001-.044.018-.053.037l.053-.037zm1.057.044l-.047-.005.047.005zm-.776 0l.048-.005-.048.005zm.473 0c-.016-.003-.042-.024-.042-.024l.042.023zm-.17 0c.016-.003.043-.024.043-.024l-.043.023zm.832-.133s-.024.02-.041.022l-.007.004s-.01.032-.02.045c-.01.014-.036.035-.036.035s-.027-.023-.044-.027a.054.054 0 0 0-.034 0 .063.063 0 0 0-.026.025.07.07 0 0 0-.015.04c.001.017.022.046.022.046l-.014.025-.02.013a.496.496 0 0 1-.107-.042.106.106 0 0 1-.025-.05s.025-.016.031-.028c.007-.015.01-.034.001-.047-.009-.015-.03-.023-.047-.023a.05.05 0 0 0-.035.015c-.01.01-.016.025-.014.039.002.014.026.032.026.032s-.01.026-.021.03a.329.329 0 0 1-.085.028.22.22 0 0 1-.092 0 .096.096 0 0 1-.05-.031c-.003-.005-.005-.017-.005-.017s.037-.01.05-.02c.015-.011.03-.026.034-.044.002-.018-.007-.037-.017-.052a.101.101 0 0 0-.043-.033c-.007-.004-.024-.004-.024-.004l-.005.005a.08.08 0 0 1-.027.022h-.001l-.007.003-.004.001-.014.004s.022.007.028.016a.04.04 0 0 1 .006.018.049.049 0 0 1-.003.03.05.05 0 0 1-.009.02.043.043 0 0 1-.009.008.07.07 0 0 1-.02.01h-.024s.031 0 .043-.01h.001a.06.06 0 0 0 .021-.04v-.018a.042.042 0 0 0-.012-.023c-.014-.012-.052-.013-.053-.014 0 0-.04.002-.053.014a.044.044 0 0 0-.012.023.086.086 0 0 0 .003.03.06.06 0 0 0 .02.029c.011.009.041.009.042.009h-.024a.069.069 0 0 1-.019-.01.043.043 0 0 1-.01-.008.05.05 0 0 1-.01-.02.065.065 0 0 1-.003-.018l.001-.012a.04.04 0 0 1 .006-.018c.006-.009.028-.016.028-.016l-.014-.004h-.004l-.007-.004a.082.082 0 0 1-.028-.022l-.005-.005s-.017 0-.024.004a.1.1 0 0 0-.042.033c-.01.015-.02.034-.017.052.003.018.018.033.032.044.015.01.051.02.051.02s-.001.012-.005.017a.095.095 0 0 1-.05.031.219.219 0 0 1-.091 0 .33.33 0 0 1-.086-.027c-.011-.005-.021-.03-.021-.03s.024-.02.026-.033c.002-.014-.005-.029-.014-.039a.05.05 0 0 0-.035-.015c-.018 0-.038.008-.047.023-.008.013-.006.032.001.047.006.012.032.027.032.027a.107.107 0 0 1-.026.051.494.494 0 0 1-.106.042l-.02-.013-.015-.025s.021-.03.022-.046a.07.07 0 0 0-.015-.04.063.063 0 0 0-.026-.024.054.054 0 0 0-.034-.001.164.164 0 0 0-.043.027s-.027-.02-.037-.035c-.01-.013-.02-.045-.02-.045l-.007-.004c-.017-.003-.04-.022-.04-.022l-.026.006s-.022.012-.023.023c0 .015.021.022.03.034l.024.03c.007.011.016.02.02.032.003.013-.006.028 0 .04.006.015.02.03.037.034.014.003.042-.015.042-.015v.112l.057.052.055.114-.022.028.006.056c.042-.053.115-.077.18-.096.089-.025.25-.027.325-.026h.041s.248-.007.366.026c.065.02.138.043.18.096l.006-.056-.021-.028.054-.114.058-.052-.001-.112s.028.018.043.015c.016-.004.03-.019.037-.034.005-.012-.004-.027 0-.04.003-.012.012-.021.02-.031a.414.414 0 0 1 .023-.031c.01-.012.03-.019.03-.034 0-.011-.023-.023-.023-.023l-.025-.006zm-.83-.014a.176.176 0 0 0 .026.021h.001a.075.075 0 0 0 .011.005.158.158 0 0 0 .045.001s.029.003.045-.001a.084.084 0 0 0 .01-.004h.002a.168.168 0 0 0 .027-.022.055.055 0 0 0 .007-.012.06.06 0 0 0 0-.049c-.01-.017-.03-.025-.046-.035a.423.423 0 0 0-.045-.021s-.03.012-.045.02c-.016.01-.036.019-.045.036a.06.06 0 0 0-.001.049.059.059 0 0 0 .007.012z"/>
    <path fill="#FFE000" stroke="#000" stroke-linecap="round" stroke-linejoin="round" stroke-width=".018" d="M11.092 4.647s-.061-.029-.093-.039c-.058-.018-.119-.029-.179-.04-.07-.014-.141-.018-.21-.034-.022-.005-.043-.015-.065-.02-.03-.006-.062-.016-.092-.01a.154.154 0 0 0-.044.026s-.027-.022-.043-.025c-.03-.007-.062.003-.093.01-.021.004-.042.014-.064.02-.069.015-.14.019-.21.032-.06.012-.121.023-.18.041-.031.01-.092.039-.092.039h1.365zm-.26-.253s.03-.016.041-.028a.053.053 0 0 0 .015-.03.048.048 0 0 0-.012-.036.05.05 0 0 0-.036-.012.046.046 0 0 0-.029.01.051.051 0 0 0-.017.032c-.001.01.003.02.008.03.007.013.03.034.03.034zm-.846 0s.024-.021.031-.035a.053.053 0 0 0 .008-.03.052.052 0 0 0-.017-.031.046.046 0 0 0-.03-.01.05.05 0 0 0-.035.012.049.049 0 0 0-.012.036c0 .011.007.021.014.03a.19.19 0 0 0 .041.028zm-.23.101l-.067.087s0 .023.005.033a.133.133 0 0 0 .033.032l.004.12-.063.11h-.005l.04.022h.006c.024-.001.04-.029.06-.041a1.343 1.343 0 0 1 .365-.125.794.794 0 0 1 .166-.007c.037.003.109.02.11.02 0 0 .072-.017.108-.02a.788.788 0 0 1 .324.047 1.345 1.345 0 0 1 .207.085c.021.012.036.04.06.042h.006l.041-.023h-.006l-.063-.11.005-.12s.026-.018.033-.032c.005-.01.004-.033.004-.033l-.066-.087s-.034.034-.056.04a.061.061 0 0 1-.036 0c-.014-.004-.025-.015-.037-.024a.473.473 0 0 1-.072-.068c-.012-.015-.03-.049-.03-.049s-.072.057-.115.068a.25.25 0 0 1-.132-.003.122.122 0 0 1-.028-.017.235.235 0 0 0-.148-.044.235.235 0 0 0-.148.044s-.017.014-.028.017a.251.251 0 0 1-.131.003.462.462 0 0 1-.116-.068s-.017.034-.03.049a.47.47 0 0 1-.072.068c-.011.009-.022.02-.036.025a.061.061 0 0 1-.036 0c-.022-.007-.056-.041-.056-.041z"/>
    <path fill="#FFE000" d="M11.12 4.46s.003-.032 0-.048a.118.118 0 0 0-.018-.04.246.246 0 0 0-.032-.032l.05.12zm-.058.035s.019 0 .027-.003c.015-.008.034-.036.034-.036s.038.026.058.023c.01-.001.018-.01.024-.02a.044.044 0 0 0 .007-.03c-.002-.01-.01-.016-.016-.021-.013-.011-.036-.01-.044-.024-.007-.011-.003-.027 0-.04.008-.026.027-.048.043-.071.01-.015.03-.025.031-.042.001-.01-.011-.026-.011-.026s-.03 0-.043.003a.138.138 0 0 0-.063.035c-.013.014-.017.035-.024.054-.006.014-.014.043-.014.043s-.034 0-.049.007a.096.096 0 0 0-.048.043.07.07 0 0 0 0 .05c.006.017.02.03.034.04.016.01.054.015.054.015zM9.748 4.34s-.024.02-.032.033a.118.118 0 0 0-.018.04c-.003.015 0 .047 0 .047l.05-.12zm-.145-.135s-.013.017-.012.026c.002.017.022.027.032.042.015.023.034.045.042.071.004.013.008.029.001.04-.008.014-.031.013-.044.024-.007.005-.014.012-.016.02a.044.044 0 0 0 .007.032c.005.009.014.018.024.02.02.002.057-.024.057-.024s.02.028.034.036c.009.004.028.003.028.003s.038-.006.054-.016a.083.083 0 0 0 .034-.038.07.07 0 0 0 0-.051.096.096 0 0 0-.049-.043c-.015-.007-.048-.007-.048-.007l-.014-.043c-.007-.019-.011-.04-.025-.054a.138.138 0 0 0-.062-.035c-.014-.004-.043-.003-.043-.003zm.76.08l.046-.014.046.014h-.093zm.011.113s-.036-.034-.043-.056a.042.042 0 0 1 .003-.03c.006-.013.032-.027.032-.027s-.04-.019-.05-.037a.048.048 0 0 1-.003-.035.095.095 0 0 1 .033-.045c.018-.015.063-.03.063-.03s.045.015.063.03a.094.094 0 0 1 .033.045.048.048 0 0 1-.004.035c-.01.018-.05.037-.05.037s.027.014.033.026c.005.01.005.021.002.031a.186.186 0 0 1-.043.056l-.034.002-.035-.002zm.127-.151s.075.032.101.062c.007.009.013.02.012.03-.002.04-.057.103-.057.103l-.112-.047h-.072l-.112.047s-.055-.063-.058-.102c0-.011.006-.022.013-.03.025-.03.1-.063.1-.063"/>
    <path stroke="#000" stroke-linecap="round" stroke-linejoin="round" stroke-width=".018" d="M10.501 4.247s.075.032.101.062c.007.009.013.02.012.03-.002.04-.057.103-.057.103l-.112-.047h-.072l-.112.047s-.055-.063-.058-.102c0-.011.006-.022.013-.03.025-.03.1-.063.1-.063m.804.213s.003-.032 0-.048a.118.118 0 0 0-.018-.04.246.246 0 0 0-.032-.032l.05.12zm-.058.035s.019 0 .027-.003c.015-.008.034-.036.034-.036s.038.026.058.023c.01-.001.018-.01.024-.02a.044.044 0 0 0 .007-.03c-.002-.01-.01-.016-.016-.021-.013-.011-.036-.01-.044-.024-.007-.011-.003-.027 0-.04.008-.026.027-.048.043-.071.01-.015.03-.025.031-.042.001-.01-.011-.026-.011-.026s-.03 0-.043.003a.138.138 0 0 0-.063.035c-.013.014-.017.035-.024.054-.006.014-.014.043-.014.043s-.034 0-.049.007a.096.096 0 0 0-.048.043.07.07 0 0 0 0 .05c.006.017.02.03.034.04.016.01.054.015.054.015zM9.748 4.34s-.024.02-.032.033a.118.118 0 0 0-.018.04c-.003.015 0 .047 0 .047l.05-.12zm-.145-.135s-.013.017-.012.026c.002.017.022.027.032.042.015.023.034.045.042.071.004.013.008.029.001.04-.008.014-.031.013-.044.024-.007.005-.014.012-.016.02a.044.044 0 0 0 .007.032c.005.009.014.018.024.02.02.002.057-.024.057-.024s.02.028.034.036c.009.004.028.003.028.003s.038-.006.054-.016a.083.083 0 0 0 .034-.038.07.07 0 0 0 0-.051.096.096 0 0 0-.049-.043c-.015-.007-.048-.007-.048-.007l-.014-.043c-.007-.019-.011-.04-.025-.054a.138.138 0 0 0-.062-.035c-.014-.004-.043-.003-.043-.003zm.76.08l.046-.014.046.014h-.093zm.011.113s-.036-.034-.043-.056a.042.042 0 0 1 .003-.03c.006-.013.032-.027.032-.027s-.04-.019-.05-.037a.048.048 0 0 1-.003-.035.095.095 0 0 1 .033-.045c.018-.015.063-.03.063-.03s.045.015.063.03a.094.094 0 0 1 .033.045.048.048 0 0 1-.004.035c-.01.018-.05.037-.05.037s.027.014.033.026c.005.01.005.021.002.031a.186.186 0 0 1-.043.056l-.034.002-.035-.002z"/>
    <path fill="#FFE000" stroke="#000" stroke-linecap="round" stroke-linejoin="round" stroke-width=".018" d="M10.328 3.748l.045-.035h.036-.037s-.02-.014-.026-.024a.051.051 0 0 1-.005-.034.058.058 0 0 1 .024-.038c.013-.007.044-.003.044-.003s.03-.004.043.003a.058.058 0 0 1 .025.038.051.051 0 0 1-.005.034.104.104 0 0 1-.026.024h-.037.036l.045.035h-.162zm.457.028l-.015.026.015-.026zm.167-.086l-.042.006.042-.006zm.006.055l-.065.003.065-.003zm-.073-.074c.008.006.023.016.026.026a.055.055 0 0 1-.018.052c-.013.01-.052.008-.052.008l.044-.086zm-1.061.274l.095-.023c.045-.011.09-.024.136-.032.052-.01.104-.016.157-.02.065-.005.197-.003.197-.003s.131-.002.197.003c.053.004.105.01.157.02.046.008.09.02.136.032l.095.023h-1.17zm.21-.169l.014.026-.015-.026zm-.169-.086l.042.006-.042-.006zm-.005.055l.064.003-.064-.003zm.028.093l.106-.025a1.523 1.523 0 0 1 .253-.031c.054-.003.162-.003.162-.003s.108 0 .162.003a1.672 1.672 0 0 1 .253.031l.106.025H9.888zm.088-.081s-.038.003-.051-.008a.055.055 0 0 1-.018-.052c.003-.013.031-.029.031-.029l.038.089zm.316.326a1.231 1.231 0 0 0-.403.075c-.063.022-.129.126-.18.085-.012-.01.004-.029.01-.042a.243.243 0 0 1 .042-.07c.014-.016.045-.018.048-.037.003-.015-.019-.023-.024-.037A.096.096 0 0 1 9.782 4c.007-.023.037-.035.043-.058.006-.02-.014-.044-.004-.063.012-.023.063-.015.067-.041.002-.013-.021-.017-.026-.029-.003-.009.002-.018.002-.027 0-.013.002-.026-.003-.037-.005-.01-.021-.012-.024-.023-.003-.01-.001-.023.006-.03.006-.006.02.002.024-.005.008-.015-.014-.03-.02-.045-.009-.018-.019-.035-.023-.054-.004-.015-.017-.039-.003-.047.015-.009.03.019.045.03.018.013.04.026.052.046.01.014.005.036.017.048.015.014.043.002.059.016.013.011.025.03.02.048-.003.016-.042.016-.038.032.005.02.038.018.058.014.011-.002.02-.012.029-.019.007-.005.013-.012.021-.016a.125.125 0 0 1 .03-.005l-.011-.003s-.018-.014-.02-.024a.034.034 0 0 1 .01-.028.043.043 0 0 1 .03-.012c.01 0 .02.003.026.01.006.007.01.017.009.027a.033.033 0 0 1-.013.021c-.007.006-.025.008-.025.008l.012.004.035.047.148-.008s.019-.019.015-.03c-.004-.01-.014-.014-.032-.013-.048.002-.057-.038-.056-.068.002-.024.031-.04.054-.05.021-.008.06.02.07 0 .008-.02-.033-.029-.04-.048a.036.036 0 0 1 .002-.027c.01-.02.032-.034.053-.043.008-.004.028-.004.028-.004s.02 0 .028.004c.02.01.043.023.053.043a.037.037 0 0 1 .001.027c-.006.02-.048.029-.04.047.01.022.05-.007.071.001.023.01.052.026.053.05.002.03-.008.07-.056.068-.017-.001-.027.003-.031.014-.004.01.014.029.014.029l.149.008.034-.047.013-.004s-.018-.002-.025-.008a.033.033 0 0 1-.013-.021.035.035 0 0 1 .009-.027.037.037 0 0 1 .026-.01c.01 0 .023.004.03.012a.034.034 0 0 1 .01.028c-.002.01-.02.024-.02.024l-.012.003s.021.001.03.005c.009.004.015.01.022.016.01.007.018.017.029.02.02.003.053.004.058-.015.003-.016-.035-.016-.039-.032-.004-.017.008-.037.021-.048.015-.014.044-.002.059-.016.012-.012.007-.034.016-.048.013-.02.034-.033.053-.047.014-.01.03-.038.045-.029.013.008 0 .032-.003.047-.005.019-.015.036-.023.054-.006.015-.028.03-.02.045.003.007.018 0 .024.005.007.007.01.02.006.03-.003.01-.02.013-.024.023-.005.011-.003.024-.003.037 0 .009.004.018.001.027-.004.012-.027.016-.025.029.004.026.055.018.067.041.01.02-.01.043-.005.063.007.023.036.035.043.058a.096.096 0 0 1-.003.056c-.004.014-.026.022-.024.037.004.02.035.021.048.036.019.02.033.045.044.07.005.014.02.034.01.043-.053.041-.118-.063-.18-.086a1.234 1.234 0 0 0-.404-.074c-.039-.003-.117-.003-.117-.003s-.078 0-.117.003zM10.466 3.334h-.114.114zm-.019-.19c.015-.03-.01-.054-.038-.077-.026.023-.052.046-.037.078h.075zm.003.262c.022.002.049.024.065.01.008-.007.004-.02 0-.03-.009-.021-.047-.026-.049-.049-.001-.02.03-.029.036-.048a.043.043 0 0 0 0-.03c-.016-.036-.082-.038-.093-.076-.005-.017.033-.036.038-.038.025-.011.055.014.079.004.016-.007.034-.023.034-.04 0-.02-.021-.036-.039-.044-.034-.015-.09.033-.112.002-.02-.028.048-.062.04-.095-.005-.015-.04-.03-.04-.03s-.034.014-.039.03c-.009.033.059.067.04.095-.021.031-.078-.017-.112-.002-.018.008-.038.024-.039.043 0 .018.018.034.034.041.024.01.054-.015.079-.004.005.002.043.021.038.038-.012.038-.078.04-.093.077a.044.044 0 0 0 0 .03c.006.018.037.027.035.047-.001.023-.04.028-.049.05-.003.008-.007.022 0 .029.017.014.044-.008.065-.01a.52.52 0 0 1 .041 0h.041z"/>
    <path stroke="#000" stroke-linecap="round" stroke-linejoin="round" stroke-width=".018" d="M9.73 4.768l.148-.049c.051-.016.102-.034.154-.045.063-.014.127-.02.19-.027.063-.007.187-.014.187-.014s.124.007.186.014c.064.007.128.013.19.027.053.011.104.03.155.045l.148.049m-.148.572l-.06-.025a1.454 1.454 0 0 0-.112-.036c-.037-.01-.074-.02-.113-.025-.081-.01-.246-.001-.246-.001s-.165-.008-.246.001c-.038.004-.075.015-.112.025a1.432 1.432 0 0 0-.173.06h1.062zm.069-1.246s-.067-.027-.101-.039c-.029-.01-.058-.02-.087-.027a2.115 2.115 0 0 0-.268-.035c-.047-.003-.144-.003-.144-.003s-.096 0-.144.003a2.115 2.115 0 0 0-.268.035c-.03.007-.058.017-.086.027-.034.012-.101.039-.101.039h1.198z"/>
    <path fill="#CCC" stroke="#000" stroke-linejoin="round" stroke-width=".018" d="M8.586 5.063l.567.485s-.03.063-.041.095a.799.799 0 0 0-.052.23l-.66-.605c.009-.138.087-.187.186-.205zM8.506 5.366l-.136.152.085.082-.132.128-.085-.085-.142.152-.002.19.326.254.112-.083-.007-.181.087.048.086-.053.005.163-.07-.051-.077.101-.008.18.245.217.297-.263-.023-.08-.012-.07-.007-.141.01-.154-.552-.506z"/>
    <path fill="#CCC" stroke="#000" stroke-linejoin="round" stroke-width=".018" d="M8.37 5.518l-.004.168.088-.085-.084-.083z"/>
    <path stroke="#000" stroke-linejoin="round" stroke-width=".018" d="M8.097 5.794l.323.275.105-.094-.083-.07.093-.089.072.063.082-.084.106.103-.096.075.09.082-.086.078m.1.253l-.01.192.01-.192zm-.115-.59l.004.178-.004-.178zm-.08.08l.005.146-.004-.145zm-.075-.058l.003.162-.003-.162zm-.117.248l.001.171-.001-.171zm.14.117l.247.207.252-.222-.5.015z"/>
    <path fill="#CCC" stroke="#000" stroke-linejoin="round" stroke-width=".018" d="M10.647 6.884l.272.25.06.176-.35-.037-.2-.198-.213-.197-.918-.796.031-.11c.018-.051.039-.102.06-.153l.016-.038 1.025.909.217.194z"/>
    <path fill="#CCC" stroke="#000" stroke-linejoin="round" stroke-width=".018" d="M10.879 6.922c.151.212.407.412.484.509.078.096.128.187.015.31-.113.124-.242.054-.343-.014-.1-.068-.277-.287-.53-.456l.374-.35z"/>
    <path fill="#CCC" d="M10.789 7.279l-.197-.09.197.09zm.032-.304c.014.045.003.094.02.137a.561.561 0 0 0 .079.112s-.04.005-.058.012c-.026.01-.067.016-.073.043-.006.024.022.045.04.063a.25.25 0 0 0 .057.042c.034.02.07.043.109.05.049.01.14-.06.149-.01.003.02-.042.007-.06.016-.044.021-.065.068-.027.1.024.02.063.013.095.016.03.002.066-.016.093 0 .031.018.07.062.054.094-.017.034-.081.033-.112.011-.022-.016-.016-.053-.02-.08v-.025"/>
    <path stroke="#000" stroke-linejoin="round" stroke-width=".018" d="M10.821 6.975c.014.045.003.094.02.137a.561.561 0 0 0 .079.112s-.04.005-.058.012c-.026.01-.067.016-.073.043-.006.024.022.045.04.063a.25.25 0 0 0 .057.042c.034.02.07.043.109.05.049.01.14-.06.149-.01.003.02-.042.007-.06.016-.044.021-.065.068-.027.1.024.02.063.013.095.016.03.002.066-.016.093 0 .031.018.07.062.054.094-.017.034-.081.033-.112.011-.022-.016-.016-.053-.02-.08v-.025m-.378-.277l-.197-.09.197.09z"/>
    <path fill="#CCC" stroke="#000" stroke-linejoin="round" stroke-width=".018" d="M12.066 9.015a.726.726 0 1 0 0-1.452.726.726 0 0 0 0 1.452z"/>
    <path fill="#fff" stroke="#000" stroke-linejoin="round" stroke-width=".018" d="M11.794 8.32a.227.227 0 1 0 .227.226l.078-.003a.227.227 0 1 0 .227-.227l.003-.044a.227.227 0 1 0-.226-.227l-.079-.007a.227.227 0 1 0-.226.227l-.004.055z"/>
    <path fill="#CCC" stroke="#000" stroke-linejoin="round" stroke-width=".018" d="M12.066 8.18a.082.082 0 1 0 0-.164.082.082 0 0 0 0 .164zM12.26 8.37a.082.082 0 1 0 0-.163.082.082 0 0 0 0 .164zM12.07 8.545a.082.082 0 1 0 0-.164.082.082 0 0 0 0 .164zM11.868 8.37a.082.082 0 1 0 0-.163.082.082 0 0 0 0 .164z"/>
    <path fill="#fff" stroke="#000" stroke-linejoin="round" stroke-width=".018" d="M12.052 8.727a.29.29 0 0 1-.123.123.354.354 0 0 0 .246 0 .298.298 0 0 1-.123-.123zm-.429-.45a.29.29 0 0 1-.122-.122.354.354 0 0 0 0 .246.298.298 0 0 1 .122-.123zm.892.021a.29.29 0 0 0 .123-.122.354.354 0 0 1 0 .245.298.298 0 0 0-.123-.123zm-.439-.452a.29.29 0 0 0-.123-.123.354.354 0 0 1 .246 0 .298.298 0 0 0-.123.123z"/>
    <path fill="#FFE000" stroke="#000" stroke-linejoin="round" stroke-width=".018" d="M8.587 5.061s.004-.028 0-.041a.126.126 0 0 0-.037-.057.11.11 0 0 0-.051-.026.138.138 0 0 0-.062.005c-.013.004-.038.019-.038.019l-.083.034-.03.099s-.018.031-.023.048a.12.12 0 0 0-.003.057.111.111 0 0 0 .035.057c.016.013.037.02.058.022a.155.155 0 0 0 .046-.01c.01-.104.056-.184.188-.207z"/>
    <path fill="#FFE000" stroke="#000" stroke-linejoin="round" stroke-width=".018" d="M8.4 4.96l-.216-.096-.018.017.118.214s.033-.049.053-.071C8.357 5 8.4 4.96 8.4 4.96z"/>
    <path fill="#FFE000" stroke="#000" stroke-linejoin="round" stroke-width=".018" d="M8.16 4.935a.09.09 0 1 0 0-.179.09.09 0 0 0 0 .179zM8.77 5.22c.02.157.042.314.09.47l.174.16c-.037-.164-.103-.328-.103-.491l-.16-.138z"/>
    <path fill="#FFE000" stroke="#000" stroke-linejoin="round" stroke-width=".018" d="M9.032 5.446l-.478-.036.152.14.437.018.007-.022-.118-.1zM9.622 5.975a.347.347 0 0 0-.212.208c-.035.003-.069.003-.08-.023a.328.328 0 0 1 .2-.268c.084-.015.068.05.092.083zM9.776 6.12a.347.347 0 0 0-.212.208c-.035.003-.069.003-.08-.023a.327.327 0 0 1 .2-.268c.083-.015.068.05.092.083zM11.528 7.586a.402.402 0 0 0-.084.009c.001.045-.017.093-.067.147a.187.187 0 0 1-.132.067s-.016.099.014.13c.036.037.152.022.152.022l.01-.006a.727.727 0 0 1 .179-.223l.002-.007s.017-.093-.012-.12c-.014-.013-.037-.018-.062 0v-.019zM12.625 7.801a.099.099 0 1 0 0-.197.099.099 0 0 0 0 .197zM12.659 8.947a.099.099 0 1 0 0-.198.099.099 0 0 0 0 .198zM11.547 9.012a.099.099 0 1 0 0-.198.099.099 0 0 0 0 .198z"/>
    <path fill="#FA0204" stroke="#000" stroke-linejoin="round" stroke-width=".018" d="M10.467 6.584c0 .03-.025.042-.074.042-.049 0-.071-.014-.071-.044s.022-.038.071-.038c.05 0 .074.01.074.04zM10.513 6.769c-.01.028-.037.03-.084.015-.046-.016-.063-.037-.053-.066.01-.028.034-.028.08-.012.046.017.067.034.057.063zM10.514 6.846c-.006.03-.033.036-.08.026-.049-.01-.068-.028-.062-.057.006-.03.03-.033.077-.023.048.01.071.025.065.054zM10.762 6.81c-.015-.003-.013-.029-.01-.043.007-.023.048-.051.048-.051s.01.03.005.045c-.007.021-.022.055-.043.05z"/>
    <path fill="#FA0204" stroke="#000" stroke-linejoin="round" stroke-width=".018" d="M10.709 6.857c-.016-.004-.018-.031-.014-.047.007-.024.054-.052.054-.052s.008.034.003.05c-.007.02-.022.053-.043.049zM10.648 6.944c-.024-.006-.021-.049-.015-.073.006-.02.021-.051.041-.046.024.005.023.046.018.07-.006.021-.023.055-.044.05z"/>
    <path fill="#FA0204" stroke="#000" stroke-linejoin="round" stroke-width=".018" d="M10.577 7.012c-.024-.005-.034-.043-.029-.066.005-.025.03-.059.055-.053.025.006.033.047.027.072-.005.023-.03.052-.053.047zM10.565 7.054c-.007.028-.043.038-.065.03-.023-.007-.053-.04-.047-.07.006-.03.046-.037.069-.029.022.009.048.04.043.069zM10.088 6.778s.029.014.041.026c.013.014.029.02.02.04-.007.02-.032.013-.045-.002-.012-.013-.016-.064-.016-.064zM10.23 6.827c.03.006.029.04.014.06-.016.022-.06.05-.091.045-.031-.007-.028-.044-.01-.066.015-.02.058-.045.087-.04zM10.328 6.891c.027.012.02.045 0 .062-.02.018-.07.036-.1.023-.028-.013-.016-.048.005-.066.02-.016.068-.03.095-.019z"/>
    <path fill="#FA0204" stroke="#000" stroke-linejoin="round" stroke-width=".018" d="M10.433 7.004c.027.004.034.041.026.065-.01.025-.042.06-.07.056-.029-.005-.034-.046-.024-.071.01-.024.041-.054.068-.05z"/>
    <path fill="#FA0204" stroke="#000" stroke-linejoin="round" stroke-width=".018" d="M10.5 7.086c.023.013.018.054.003.076-.015.023-.055.048-.078.034-.024-.013-.016-.057.001-.08.015-.021.053-.043.075-.03zM10.019 6.862c.024-.002.04.034.04.06 0 .027-.019.07-.044.071-.025.003-.04-.037-.04-.065.002-.025.02-.063.044-.066z"/>
    <path fill="#FA0204" stroke="#000" stroke-linejoin="round" stroke-width=".018" d="M10.097 6.93c.023.006.028.045.02.07-.009.025-.04.06-.064.054-.024-.005-.027-.048-.018-.074.01-.024.039-.054.062-.05z"/>
    <path fill="#FA0204" stroke="#000" stroke-linejoin="round" stroke-width=".018" d="M10.168 6.979c.028.006.034.055.024.085-.01.032-.046.075-.075.068-.03-.006-.033-.06-.021-.091.01-.03.045-.068.072-.062z"/>
    <path fill="#FA0204" stroke="#000" stroke-linejoin="round" stroke-width=".018" d="M10.227 7.038c.028-.004.05.04.052.072.002.033-.017.086-.046.09-.03.004-.052-.045-.052-.079 0-.031.018-.08.046-.083z"/>
    <path fill="#FA0204" stroke="#000" stroke-linejoin="round" stroke-width=".018" d="M10.296 7.088c.025-.003.046.032.047.059.002.028-.015.072-.042.075-.027.003-.047-.037-.047-.065 0-.027.017-.066.042-.07zM10.804 7.005c-.018.016-.055.002-.07-.016-.018-.019-.03-.059-.01-.076.018-.016.057.001.073.02.015.019.025.056.007.072zM10.669 7.175c-.006.023-.044.031-.068.025-.024-.006-.057-.033-.05-.057.007-.025.049-.031.073-.024.023.007.051.033.045.056z"/>
    <path fill="#FA0204" stroke="#000" stroke-linejoin="round" stroke-width=".018" d="M10.568 7.158c.02.014.016.059.002.083-.014.026-.05.053-.072.038-.021-.015-.014-.063.001-.088.014-.024.049-.047.07-.033z"/>
    <path fill="#FA0204" stroke="#000" stroke-linejoin="round" stroke-width=".018" d="M10.47 7.21c.022.013.017.054.002.076-.015.023-.055.048-.079.035-.023-.014-.015-.058.002-.08.015-.022.053-.043.075-.03zM10.255 7.352c-.019.018-.004.063.016.086.02.023.066.045.086.026.02-.019.002-.067-.02-.09-.02-.022-.063-.04-.082-.022zM10.197 7.501c-.025.01-.028.058-.018.086.01.03.045.066.07.056.026-.01.027-.062.015-.091-.01-.028-.043-.06-.067-.05zM10.095 7.678c-.026.006-.036.052-.03.081.005.031.033.073.06.067.027-.006.036-.057.029-.088-.007-.029-.034-.066-.059-.06zM9.99 7.858c-.026.001-.045.045-.045.075 0 .031.02.078.047.077.028-.002.046-.05.045-.081 0-.03-.02-.071-.047-.07zM9.48 8.401l-.03.115s.017.041.034.04c.03-.003.039-.051.045-.081.005-.047-.05-.074-.05-.074zM11.297 8.474c.009.034.085.064.085.064l-.037-.156c-.032.001-.053.07-.048.092z"/>
    <path fill="#FA0204" stroke="#000" stroke-linejoin="round" stroke-width=".018" d="M11.29 8.35c-.025-.01-.06.022-.071.05-.013.028-.014.078.012.088.026.01.062-.026.073-.056.011-.027.01-.073-.014-.083z"/>
    <path fill="#FA0204" stroke="#000" stroke-linejoin="round" stroke-width=".018" d="M11.204 8.28c-.026 0-.049.04-.051.07-.003.032.012.08.04.081.027.002.05-.045.051-.076.002-.03-.014-.073-.04-.074zM10.55 7.306s-.01.149.044.159c.034.005.06-.084.06-.084l-.105-.075zM10.428 9.02c-.017.02.005.063.027.083.024.02.072.035.09.013.016-.022-.009-.067-.034-.086-.023-.019-.068-.03-.083-.01zM10.73 8.981c-.012.023.015.062.04.078.028.016.077.023.09 0 .014-.025-.018-.065-.045-.081-.026-.015-.072-.02-.084.003zM10.94 8.934c-.011.024.02.06.047.074.028.013.078.016.09-.009.01-.025-.025-.063-.054-.076-.027-.012-.073-.012-.083.011zM11.151 8.87c-.01.024.024.058.051.07.03.012.08.012.09-.014.009-.026-.029-.061-.058-.072-.028-.01-.074-.008-.083.016zM11.574 8.595s.076.011.083-.016c.009-.036-.087-.071-.087-.071l.004.087zM9.529 8.823c-.023.014-.017.061-.003.087.016.028.056.058.079.044.024-.015.016-.066-.001-.093-.015-.025-.053-.051-.075-.038zM9.23 8.498c-.024-.012-.061.017-.076.043-.015.027-.021.077.003.09.025.012.064-.02.079-.049.014-.026.017-.072-.006-.084z"/>
    <path fill="#FA0204" stroke="#000" stroke-linejoin="round" stroke-width=".018" d="M9.195 8.593c-.024-.01-.058.024-.07.052-.01.03-.01.08.016.089.026.009.06-.03.072-.059.01-.028.007-.074-.018-.082z"/>
    <path fill="#FA0204" stroke="#000" stroke-linejoin="round" stroke-width=".018" d="M9.228 8.68c-.026-.007-.056.03-.065.058-.009.03-.003.08.023.087.027.007.058-.034.066-.065.008-.028 0-.074-.024-.08z"/>
    <path fill="#FA0204" stroke="#000" stroke-linejoin="round" stroke-width=".018" d="M9.31 8.715c-.026-.007-.057.028-.067.057-.01.03-.006.08.02.087.027.008.06-.032.069-.062.008-.029.002-.074-.022-.082z"/>
    <path fill="#FA0204" stroke="#000" stroke-linejoin="round" stroke-width=".018" d="M9.363 8.73c-.026.006-.035.052-.03.081.007.031.036.073.062.066.027-.007.035-.058.028-.089-.007-.028-.035-.065-.06-.059zM10.54 7.298c.014.02-.007.06-.028.078-.023.018-.067.03-.082.009-.014-.022.011-.064.034-.082.022-.017.063-.026.076-.005zM10.546 7.986c.015.021-.008.063-.032.08-.025.02-.073.032-.09.01-.015-.023.012-.066.038-.085.024-.017.07-.026.084-.005z"/>
    <path fill="#FA0204" stroke="#000" stroke-linejoin="round" stroke-width=".018" d="M10.54 8.084c.019.018.004.063-.016.086-.02.023-.066.045-.086.026-.02-.02-.001-.067.02-.09.02-.022.063-.04.082-.022z"/>
    <path fill="#FA0204" d="M10.358 10.35a.43.43 0 0 0 .27.003l-.098-.157"/>
    <path stroke="#000" stroke-linejoin="round" stroke-width=".018" d="M10.358 10.35a.43.43 0 0 0 .27.003l-.098-.157"/>
    <path fill="#FFE000" stroke="#000" stroke-linejoin="round" stroke-width=".018" d="M10.575 9.946l-.178-.045s.002-.197.114-.18c.093.014.067.226.064.225z"/>
    <path fill="#FFE000" stroke="#000" stroke-linejoin="round" stroke-width=".018" d="M10.488 9.721a.072.072 0 1 0 0-.145.072.072 0 0 0 0 .145z"/>
    <path fill="#FA0204" stroke="#000" stroke-linejoin="round" stroke-width=".018" d="M10.558 10.034c.04.1.063.187.026.3l-.026-.3zm.069.318c-.057-.046-.205-.032-.269-.002-.025 0-.092-.466.144-.454.217.01.14.459.125.456z"/>
    <path fill="#FA0204" d="M10.165 10.451a.263.263 0 0 0 .304.003l-.225-.235"/>
    <path stroke="#000" stroke-linejoin="round" stroke-width=".018" d="M10.165 10.451a.263.263 0 0 0 .304.003l-.225-.235"/>
    <path fill="#FFE000" stroke="#000" stroke-linejoin="round" stroke-width=".018" d="M10.323 9.807a.072.072 0 1 0 0-.145.072.072 0 0 0 0 .145zM10.412 9.968l-.183-.004s-.024-.149.09-.155c.095-.005.097.159.093.16z"/>
    <path fill="#FA0204" stroke="#000" stroke-linejoin="round" stroke-width=".018" d="M10.324 10.42a.556.556 0 0 1-.029-.277l.03.277zm-.082.005c-.043-.074-.05-.168-.017-.287l.017.287zm.226.03c-.027-.034-.225-.05-.303-.002-.028 0-.103-.526.163-.513.244.012.158.518.14.515z"/>
</svg>
