<svg xmlns="http://www.w3.org/2000/svg" width="20" height="20" fill="none" viewBox="0 0 20 20">
    <g clip-path="url(#a)">
        <path fill="#F0F0F0" d="M20 3.333H0v13.334h20V3.333z"/>
        <path fill="#D80027" d="M11.25 3.333h-2.5V8.75H0v2.5h8.75v5.416h2.5V11.25H20v-2.5h-8.75V3.333z"/>
        <path fill="#0052B4" d="M15.383 12.319L20 14.884V12.32h-4.618zM12.174 12.319L20 16.666v-1.229l-5.613-3.118h-2.213zM17.916 16.666l-5.742-3.19v3.19h5.742z"/>
        <path fill="#F0F0F0" d="M12.174 12.319L20 16.666v-1.229l-5.613-3.118h-2.213z"/>
        <path fill="#D80027" d="M12.174 12.319L20 16.666v-1.229l-5.613-3.118h-2.213z"/>
        <path fill="#0052B4" d="M3.529 12.319L0 14.279v-1.96h3.529zM7.826 12.871v3.795H.996l6.83-3.795z"/>
        <path fill="#D80027" d="M5.613 12.319L0 15.437v1.23l7.826-4.348H5.613z"/>
        <path fill="#0052B4" d="M4.618 7.681L0 5.116V7.68h4.618zM7.826 7.681L0 3.333v1.23L5.613 7.68h2.213zM2.084 3.333l5.742 3.19v-3.19H2.084z"/>
        <path fill="#F0F0F0" d="M7.826 7.681L0 3.333v1.23L5.613 7.68h2.213z"/>
        <path fill="#D80027" d="M7.826 7.681L0 3.333v1.23L5.613 7.68h2.213z"/>
        <path fill="#0052B4" d="M16.472 7.681L20 5.721v1.96h-3.53zM12.174 7.128V3.333h6.83l-6.83 3.795z"/>
        <path fill="#D80027" d="M14.387 7.681L20 4.563v-1.23l-7.826 4.348h2.213z"/>
    </g>
    <defs>
        <clipPath id="a">
            <path fill="#fff" d="M0 0h20v20H0z"/>
        </clipPath>
    </defs>
</svg>
