<svg xmlns="http://www.w3.org/2000/svg" width="20" height="20" fill="none" viewBox="0 0 20 20">
    <path fill="#D80027" d="M20 3.333H0v13.333h20V3.333z"/>
    <path fill="#6DA544" d="M7.681 3.333v13.334H0V3.332h7.681z"/>
    <path fill="#FFDA44" d="M7.681 12.5a2.5 2.5 0 1 0 0-5 2.5 2.5 0 0 0 0 5z"/>
    <path fill="#D80027" d="M6.275 8.75v1.563a1.406 1.406 0 1 0 2.812 0V8.75H6.275z"/>
    <path fill="#F0F0F0" d="M7.681 10.781a.47.47 0 0 1-.469-.469v-.624h.938v.624a.47.47 0 0 1-.469.47z"/>
</svg>
