<svg width="482" height="180" viewBox="0 0 482 180" fill="none" xmlns="http://www.w3.org/2000/svg">
<path d="M240.5 2C284.168 2 315 25.89 315 90.838C315 155.785 283.448 179.915 240.5 179.915C188.674 179.915 166 142.46 166 90.838C166 26.49 197.312 2 240.5 2ZM216.506 103.683C216.506 155.785 216.506 174.753 240.38 174.753C263.774 174.753 264.494 156.025 264.494 105.604V83.874C264.494 25.65 264.494 7.162 240.38 7.162C216.746 7.162 216.506 27.931 216.506 81.714V103.683V103.683Z" fill="#173857"/>
<path d="M44.8403 171.428H68.0854V131.848H1V127.156L70.8564 3H113.732V125.953H138.303V104.298H143V150.014H138.303V131.727H113.612V171.308H130.715V176H44.8403V171.428ZM68.0854 125.832V21.768L8.94839 125.832H68.0854Z" fill="#173857"/>
<path d="M382.84 171.428H406.085V131.848H339V127.156L408.856 3H451.732V125.953H476.303V104.298H481V150.014H476.303V131.727H451.612V171.308H468.715V176H382.84V171.428ZM406.085 125.832V21.768L346.948 125.832H406.085Z" fill="#173857"/>
</svg>
