<svg width="482" height="180" viewBox="0 0 482 180" fill="none" xmlns="http://www.w3.org/2000/svg">
<path d="M377.248 24.5C377.83 24.5 378.414 24.6164 378.997 24.7329V24.5C378.997 18.6668 383.662 14 389.493 14C393.807 14 397.422 16.5668 399.055 20.1835C400.338 19.25 401.97 18.6658 403.837 18.6658C408.384 18.6658 412 22.2835 412 26.8329C412 31.3832 408.384 35 403.837 35H377.248C376.557 35.0026 375.874 34.8686 375.235 34.6057C374.597 34.3427 374.018 33.956 373.53 33.468C373.042 32.9799 372.656 32.4 372.393 31.7619C372.13 31.1238 371.997 30.44 372 29.75C372 26.8329 374.333 24.5 377.248 24.5Z" fill="white"/>
<path d="M475.147 152C474.376 152 473.604 152.175 472.919 152.349V152C472.919 144.3 466.751 138 459.213 138C453.644 138 448.847 141.413 446.704 146.313C444.991 145 442.849 144.3 440.536 144.3C434.711 144.3 430 149.2 430 155.15C430 161.1 434.711 166 440.623 166H475.147C478.916 166 482 162.85 482 159C482 155.15 478.916 152 475.147 152Z" fill="white"/>
<path d="M63.5108 74.5005C62.4436 74.5005 61.3755 74.7436 60.4266 74.9866V74.5005C60.4266 63.775 51.8862 55 41.4482 55C33.7383 55 27.0956 59.7536 24.1288 66.5782C21.7567 64.7503 18.7909 63.775 15.5884 63.775C7.5234 63.775 1 70.6006 1 78.8875C1 87.1754 7.5234 94 15.7087 94H63.5108C68.7303 94 73 89.612 73 84.2497C73 78.8875 68.7293 74.5005 63.5108 74.5005Z" fill="white"/>
</svg>
