<svg width="482" height="180" viewBox="0 0 482 180" fill="none" xmlns="http://www.w3.org/2000/svg">
<path d="M224.714 148.106C226.399 148.106 227.964 148.467 229.409 149.19C231.335 142.565 237.354 137.866 244.577 137.866C246.864 137.866 249.151 138.348 251.077 139.312C254.57 134.373 260.347 131 266.847 131C276.237 131 284.062 137.746 285.747 146.66C287.794 145.215 290.322 144.251 293.091 144.251C298.989 144.251 304.045 148.347 305.37 153.888C305.971 153.768 306.453 153.648 307.055 153.648C311.389 153.648 315 157.141 315 161.598C315 165.935 311.509 169.548 307.055 169.548H224.714C218.815 169.549 214 164.73 214 158.829C214 152.926 218.815 148.107 224.714 148.107V148.106Z" fill="white"/>
<path d="M472.738 79.705C471.658 79.705 470.578 79.945 469.738 80.305C468.417 73.82 462.776 69.015 455.935 69.015C454.735 69.015 453.415 69.135 452.335 69.496C450.293 58.926 440.931 51 429.89 51C425.788 50.9944 421.761 52.096 418.233 54.1887C414.705 56.2814 411.808 59.2876 409.846 62.89C407.686 61.81 405.166 61.209 402.646 61.209C394.844 61.209 388.363 66.614 386.562 73.819C385.962 73.699 385.242 73.699 384.642 73.699C378.281 73.7 373 78.865 373 85.35C373 91.716 378.16 97 384.642 97H472.738C473.875 97.0044 475.001 96.7836 476.052 96.3505C477.102 95.9174 478.057 95.2804 478.86 94.4764C479.664 93.6724 480.3 92.7173 480.732 91.6661C481.164 90.6149 481.384 89.4886 481.379 88.352C481.384 87.2155 481.164 86.0893 480.732 85.0383C480.3 83.9872 479.663 83.0322 478.86 82.2283C478.057 81.4244 477.102 80.7875 476.051 80.3545C475.001 79.9214 473.874 79.7007 472.738 79.705V79.705Z" fill="white"/>
<path d="M118.286 122.227C116.601 122.227 115.036 122.587 113.591 123.311C111.665 116.685 105.646 111.866 98.423 111.866C96.136 111.866 93.849 112.348 91.923 113.312C88.43 108.373 82.653 105 76.153 105C66.763 105 58.938 111.746 57.253 120.66C55.206 119.215 52.678 118.251 49.909 118.251C44.011 118.251 38.955 122.347 37.631 127.888C37.029 127.768 36.547 127.648 35.945 127.648C31.611 127.647 28 131.14 28 135.597C28 140.054 31.491 143.547 35.945 143.547H118.286C124.185 143.547 129 138.729 129 132.827C128.88 126.924 124.185 122.226 118.286 122.226V122.227Z" fill="white"/>
</svg>
