<svg width="482" height="180" viewBox="0 0 482 180" fill="none" xmlns="http://www.w3.org/2000/svg">
<path d="M209.133 109.379L213.451 148.028L225.326 121.742L227.485 117.181L328 31L209.133 109.379Z" fill="#FAFAFA"/>
<path d="M150 86.574L209.133 109.379L328 31L150 86.574Z" fill="white"/>
<path d="M227.484 117.18L283.859 148.509L327.999 31L227.484 117.18Z" fill="white"/>
<path d="M170.63 80.092L150 86.574L209.133 109.379L222.807 100.257L170.631 80.092H170.63ZM238.76 107.459L227.483 117.18L283.858 148.508L288.776 135.305L238.758 107.458L238.76 107.459Z" fill="#EEEEEE"/>
<path d="M222.807 100.257L225.925 135.545L213.451 148.028L209.133 109.379L222.807 100.257V100.257Z" fill="#E0E0E0"/>
<path d="M227.485 117.181L213.45 148.029L238.16 123.183L227.484 117.181H227.485Z" fill="#F5F5F5"/>
<path d="M170.51 89.574C174.087 89.574 176.987 88.392 176.987 86.934C176.987 85.475 174.087 84.293 170.51 84.293C166.933 84.293 164.033 85.475 164.033 86.933C164.033 88.392 166.933 89.574 170.51 89.574Z" fill="#EF5350"/>
</svg>
