<svg xmlns="http://www.w3.org/2000/svg" width="16" height="16" fill="none" viewBox="0 0 16 16">
    <path fill="#F89029" d="M16 0H0v16h16V0z"/>
    <path fill="#fff" d="M12.284 6.679h-.494a.7.7 0 0 1-.7-.7v-.05a2.94 2.94 0 0 0-2.94-2.94H5.954a2.94 2.94 0 0 0-2.94 2.94v4.141a2.94 2.94 0 0 0 2.94 2.94h4.09a2.94 2.94 0 0 0 2.94-2.94V7.38a.7.7 0 0 0-.7-.701zM6.08 5.532h2.343a.573.573 0 1 1 0 1.147H6.08a.573.573 0 1 1 0-1.147zm3.888 4.936H6.08a.573.573 0 0 1 0-1.147h3.888a.573.573 0 1 1 0 1.147z"/>
</svg>
