<svg xmlns="http://www.w3.org/2000/svg" width="16" height="16" fill="none" viewBox="0 0 16 16">
    <g clip-path="url(#a)">
        <path fill="#000" d="M.092.012L.061 15.969l5.412.043v-.004c.226-.002.399-.129.407-.342.02-.556.006-1.113.006-1.65-.403.019-.787.07-1.167.048-.839-.049-1.483-.406-1.817-1.227-.198-.486-.496-.902-.96-1.18a.973.973 0 0 1-.23-.206c-.086-.101-.07-.205.067-.233.138-.028.29-.047.426-.022.535.1.906.436 1.189.883.56.884 1.423 1.154 2.393.746.055-.023.123-.078.134-.128.078-.391.224-.748.519-1.06-.328-.061-.631-.106-.929-.175-.857-.198-1.626-.555-2.19-1.263-.458-.578-.668-1.254-.765-1.974-.151-1.128-.016-2.183.759-3.085a.243.243 0 0 0 .043-.195c-.194-.634-.165-1.262.027-1.889.101-.329.13-.345.465-.3.02.004.04.009.061.012.673.111 1.253.437 1.823.787a.408.408 0 0 0 .278.056 8.542 8.542 0 0 1 4.087.001c.08.02.185-.008.26-.047.31-.162.608-.351.922-.505.366-.179.75-.313 1.165-.306.073.002.185.071.21.135.25.661.302 1.335.103 2.022-.021.074.01.178.05.25.196.36.47.693.594 1.075.378 1.164.24 2.316-.275 3.41-.472 1.002-1.347 1.51-2.383 1.772-.35.089-.709.143-1.086.217.494.517.572 1.147.563 1.808-.009.681-.006 1.363-.007 2.045 0 .33.144.512.396.523h5.316v-16H.091z"/>
    </g>
    <defs>
        <clipPath id="a">
            <path fill="#fff" d="M0 0h16v16H0z"/>
        </clipPath>
    </defs>
</svg>
