<svg xmlns="http://www.w3.org/2000/svg" width="16" height="16" fill="none" viewBox="0 0 16 16">
    <path fill="#0084B1" d="M16 0H0v16h16V0z"/>
    <path fill="#fff" d="M3.764 2.43c.733 0 1.338.606 1.336 1.342a1.334 1.334 0 0 1-1.345 1.336c-.713.014-1.34-.581-1.339-1.34 0-.738.607-1.339 1.348-1.338zM4.543 13.568h-1.57a.369.369 0 0 1-.37-.369V6.501c0-.204.166-.369.37-.369h1.57c.203 0 .369.165.369.37v6.697a.369.369 0 0 1-.37.37zM13.581 8.485a2.543 2.543 0 0 0-2.542-2.543h-.403A2.257 2.257 0 0 0 8.657 7.11a.166.166 0 0 0-.02-.002v-.823a.153.153 0 0 0-.154-.153H6.524a.153.153 0 0 0-.153.153v7.13c0 .085.069.153.153.153h2.002a.153.153 0 0 0 .153-.152v-4.12c0-.711.568-1.303 1.28-1.31a1.29 1.29 0 0 1 .93.378c.235.235.38.558.38.916v4.136c0 .085.068.153.153.153h2.006a.153.153 0 0 0 .153-.152V8.485z"/>
</svg>
