<svg xmlns="http://www.w3.org/2000/svg" width="16" height="16" fill="none" viewBox="0 0 16 16">
    <path fill="#15ACE5" d="M16 0H0v16h16V0z"/>
    <path fill="#fff" d="M13.332 9.031a5.138 5.138 0 0 0-6.03-6.03 2.965 2.965 0 0 0-4.056 4.056 5.138 5.138 0 0 0 6.03 6.03 2.966 2.966 0 0 0 4.056-4.056zm-4.945 2.542c-1.826 0-2.739-.685-3.02-1.545-.28-.86.334-1.106.527-1.123.193-.018.603.029.72.386.122.37.527 1.106 1.404 1.194.878.087 1.457-.316 1.633-.738.175-.421-.14-1-1.492-1.193-1.352-.193-2.756-.79-2.756-2.142 0-1.352 1.544-1.896 3.019-1.896s2.222.833 2.387 1.159c.205.403.135 1.076-.35 1.193-.51.123-.773-.158-1.142-.842-.38-.708-1.738-.527-2.194-.123-.456.404-.334.983 1.562 1.352 1.896.368 2.598 1.053 2.598 2.124 0 1.07-1.07 2.194-2.896 2.194z"/>
</svg>
