<svg xmlns="http://www.w3.org/2000/svg" width="16" height="16" fill="none" viewBox="0 0 16 16">
    <path fill="#F2F2F2" d="M0 0h16v16H0z"/>
    <path fill="#FFC107" d="M9.781 2.739a1.07 1.07 0 0 0-2.033.66l2.764 8.505c.19.524.756.819 1.3.663.567-.164.914-.766.732-1.323L9.781 2.739z"/>
    <path fill="#4CAF50" d="M5.5 4.13a1.069 1.069 0 1 0-2.033.661l2.764 8.504c.19.524.756.819 1.3.663.567-.164.914-.766.732-1.323L5.5 4.131z"/>
    <path fill="#EC407A" d="M13.26 9.782a1.069 1.069 0 1 0-.66-2.033l-8.505 2.764a1.07 1.07 0 0 0-.663 1.3c.164.568.766.914 1.323.733l8.505-2.764z"/>
    <path fill="#472A49" d="M5.868 12.184l2.032-.66-.66-2.033-2.033.661.66 2.033z"/>
    <path fill="#CC2027" d="M10.151 10.792l2.033-.66-.661-2.034-2.033.661.661 2.033z"/>
    <path fill="#2196F3" d="M11.87 5.5a1.069 1.069 0 1 0-.661-2.034L2.705 6.23c-.525.19-.82.756-.663 1.3.164.567.766.913 1.323.732L11.87 5.5z"/>
    <path fill="#1A937D" d="M4.476 7.901l2.034-.66-.661-2.033-2.033.66.66 2.033z"/>
    <path fill="#65863A" d="M8.76 6.51l2.034-.66-.661-2.034-2.033.66.66 2.034z"/>
</svg>
