<svg xmlns="http://www.w3.org/2000/svg" width="16" height="16" fill="none" viewBox="0 0 16 16">
    <path fill="#DD4B39" d="M0 0v16h16V0H0zm9.327 8.673c-.273 1.797-1.613 2.828-3.348 2.828a3.53 3.53 0 0 1 0-7.06c.943 0 1.77.336 2.37.92L7.338 6.376c-.344-.346-.813-.53-1.358-.53-1.148 0-2.078.978-2.078 2.126s.93 2.098 2.078 2.098c.962 0 1.69-.465 1.9-1.396h-1.9V7.255h3.34c.04.229.06.468.06.716 0 .245-.018.48-.052.702zm4.24-.44H12.33V9.47h-.879V8.234h-1.237v-.88h1.237V6.117h.879v1.237h1.237v.88z"/>
</svg>
