<svg xmlns="http://www.w3.org/2000/svg" width="16" height="16" fill="none" viewBox="0 0 16 16">
    <path fill="url(#a)" d="M8 6.41c-.877 0-1.591.713-1.591 1.59 0 .877.714 1.591 1.59 1.591.878 0 1.592-.714 1.592-1.591S8.877 6.41 8 6.41zm0 0c-.877 0-1.591.713-1.591 1.59 0 .877.714 1.591 1.59 1.591.878 0 1.592-.714 1.592-1.591S8.877 6.41 8 6.41zm2.65-2.595h-5.3c-.847 0-1.535.688-1.535 1.534v5.301c0 .847.688 1.535 1.534 1.535h5.301c.847 0 1.535-.688 1.535-1.535v-5.3c0-.847-.688-1.535-1.535-1.535zM8 10.755A2.759 2.759 0 0 1 5.245 8 2.759 2.759 0 0 1 8 5.245 2.759 2.759 0 0 1 10.755 8 2.759 2.759 0 0 1 8 10.755zm2.844-4.94a.653.653 0 1 1 .001-1.306.653.653 0 0 1-.001 1.305zM8 6.408c-.877 0-1.591.714-1.591 1.59 0 .878.714 1.592 1.59 1.592.878 0 1.592-.714 1.592-1.591S8.877 6.41 8 6.41zm2.65-2.594h-5.3c-.847 0-1.535.688-1.535 1.534v5.301c0 .847.688 1.535 1.534 1.535h5.301c.847 0 1.535-.688 1.535-1.535v-5.3c0-.847-.688-1.535-1.535-1.535zM8 10.755A2.759 2.759 0 0 1 5.245 8 2.759 2.759 0 0 1 8 5.245 2.759 2.759 0 0 1 10.755 8 2.759 2.759 0 0 1 8 10.755zm2.844-4.94a.653.653 0 1 1 .001-1.306.653.653 0 0 1-.001 1.305zM8 6.408c-.877 0-1.591.714-1.591 1.59 0 .878.714 1.592 1.59 1.592.878 0 1.592-.714 1.592-1.591S8.877 6.41 8 6.41zM0 0v16h16V0H0zm13.35 10.65a2.702 2.702 0 0 1-2.7 2.7h-5.3a2.702 2.702 0 0 1-2.7-2.7v-5.3a2.702 2.702 0 0 1 2.7-2.7h5.3a2.702 2.702 0 0 1 2.7 2.7v5.3zm-2.7-6.835h-5.3c-.847 0-1.535.688-1.535 1.534v5.301c0 .847.688 1.535 1.534 1.535h5.301c.847 0 1.535-.688 1.535-1.535v-5.3c0-.847-.688-1.535-1.535-1.535zM8 10.755A2.759 2.759 0 0 1 5.245 8 2.759 2.759 0 0 1 8 5.245 2.759 2.759 0 0 1 10.755 8 2.759 2.759 0 0 1 8 10.755zm2.844-4.94a.653.653 0 1 1 .001-1.306.653.653 0 0 1-.001 1.305zM8 6.408c-.877 0-1.591.714-1.591 1.59 0 .878.714 1.592 1.59 1.592.878 0 1.592-.714 1.592-1.591S8.877 6.41 8 6.41zm0 0c-.877 0-1.591.714-1.591 1.59 0 .878.714 1.592 1.59 1.592.878 0 1.592-.714 1.592-1.591S8.877 6.41 8 6.41zm0 0c-.877 0-1.591.714-1.591 1.59 0 .878.714 1.592 1.59 1.592.878 0 1.592-.714 1.592-1.591S8.877 6.41 8 6.41zm2.65-2.594h-5.3c-.847 0-1.535.688-1.535 1.534v5.301c0 .847.688 1.535 1.534 1.535h5.301c.847 0 1.535-.688 1.535-1.535v-5.3c0-.847-.688-1.535-1.535-1.535zM8 10.755A2.759 2.759 0 0 1 5.245 8 2.759 2.759 0 0 1 8 5.245 2.759 2.759 0 0 1 10.755 8 2.759 2.759 0 0 1 8 10.755zm2.844-4.94a.653.653 0 1 1 .001-1.306.653.653 0 0 1-.001 1.305zM8 6.408c-.877 0-1.591.714-1.591 1.59 0 .878.714 1.592 1.59 1.592.878 0 1.592-.714 1.592-1.591S8.877 6.41 8 6.41zm0 0c-.877 0-1.591.714-1.591 1.59 0 .878.714 1.592 1.59 1.592.878 0 1.592-.714 1.592-1.591S8.877 6.41 8 6.41zm0 0c-.877 0-1.591.714-1.591 1.59 0 .878.714 1.592 1.59 1.592.878 0 1.592-.714 1.592-1.591S8.877 6.41 8 6.41zm2.65-2.594h-5.3c-.847 0-1.535.688-1.535 1.534v5.301c0 .847.688 1.535 1.534 1.535h5.301c.847 0 1.535-.688 1.535-1.535v-5.3c0-.847-.688-1.535-1.535-1.535zM8 10.755A2.759 2.759 0 0 1 5.245 8 2.759 2.759 0 0 1 8 5.245 2.759 2.759 0 0 1 10.755 8 2.759 2.759 0 0 1 8 10.755zm2.844-4.94a.653.653 0 1 1 .001-1.306.653.653 0 0 1-.001 1.305zM8 6.408c-.877 0-1.591.714-1.591 1.59 0 .878.714 1.592 1.59 1.592.878 0 1.592-.714 1.592-1.591S8.877 6.41 8 6.41z"/>
    <defs>
        <linearGradient id="a" x1="16" x2="0" y2="16" gradientUnits="userSpaceOnUse">
            <stop stop-color="#9D28B1"/>
            <stop offset=".24" stop-color="#BA3188"/>
            <stop offset=".531" stop-color="#EC4142"/>
            <stop offset=".823" stop-color="#FFBB0A"/>
            <stop offset="1" stop-color="#FFBB0A"/>
        </linearGradient>
    </defs>
</svg>
