<svg xmlns="http://www.w3.org/2000/svg" width="16" height="16" fill="none" viewBox="0 0 16 16">
    <path fill="#50ABF1" d="M16 0H0v16h16V0z"/>
    <path fill="#fff" d="M2.12 11.86a6.888 6.888 0 0 0 10.564-6.105c.137-.107.988-.79 1.197-1.228 0 0-.691.287-1.367.355h-.005l.004-.002c.062-.042.933-.635 1.051-1.341 0 0-.488.26-1.173.489a7.853 7.853 0 0 1-.354.109 2.416 2.416 0 0 0-4.118 2.198c-.187-.008-3.028-.167-4.96-2.508 0 0-1.156 1.577.688 3.199 0 0-.56-.022-1.044-.311 0 0-.178 1.91 1.91 2.399 0 0-.411.155-1.066.044 0 0 .366 1.544 2.22 1.688 0 0-1.466 1.325-3.548 1.014z"/>
</svg>
