<svg xmlns="http://www.w3.org/2000/svg" width="16" height="16" fill="none" viewBox="0 0 16 16">
    <path fill="#1BD741" d="M16 0H0v16h16V0z"/>
    <path fill="#fff" d="M2.404 13.601l.784-2.783a5.571 5.571 0 0 1-.77-2.831 5.594 5.594 0 0 1 5.589-5.588 5.594 5.594 0 0 1 5.588 5.588 5.594 5.594 0 0 1-5.588 5.588c-.96 0-1.9-.246-2.732-.713l-2.87.74zm3.018-1.755l.17.104a4.63 4.63 0 0 0 2.415.677 4.645 4.645 0 0 0 4.64-4.64 4.645 4.645 0 0 0-4.64-4.64 4.645 4.645 0 0 0-4.64 4.64c0 .891.253 1.757.732 2.503l.115.18-.45 1.603 1.658-.427z"/>
    <path fill="#fff" d="M6.437 5.386l-.362-.02a.439.439 0 0 0-.312.107c-.176.152-.457.447-.543.832-.13.573.07 1.276.585 1.978.515.702 1.474 1.825 3.171 2.305.547.155.977.05 1.31-.162a1.17 1.17 0 0 0 .508-.743l.058-.27a.188.188 0 0 0-.105-.21l-1.225-.565a.188.188 0 0 0-.228.056l-.48.623a.138.138 0 0 1-.155.046c-.33-.115-1.433-.577-2.039-1.744a.14.14 0 0 1 .018-.155l.46-.532a.188.188 0 0 0 .03-.197L6.6 5.5a.188.188 0 0 0-.163-.113z"/>
</svg>
