<svg width="900" height="600" viewBox="0 0 900 600" fill="none" xmlns="http://www.w3.org/2000/svg">
<path d="M900 0H0V600H900V0Z" fill="#F0F0F0"/>
<path d="M629.5 235.6H554.485L517 170.618L479.515 235.6H404.5L441.985 300.536L404.5 365.473H479.515L517 430.455L554.485 365.473H629.5L592.015 300.536L629.5 235.6ZM563.08 300.536L540.04 340.452H493.96L470.92 300.536L493.96 260.62H540.04L563.08 300.536ZM517 220.749L525.55 235.6H508.45L517 220.749ZM447.88 260.62H465.025L456.475 275.471L447.925 260.62H447.88ZM447.88 340.452L456.43 325.602L465.025 340.452H447.925H447.88ZM517 380.323L508.45 365.473H525.55L517 380.323ZM586.12 340.452H568.975L577.525 325.602L586.075 340.452H586.12ZM568.975 260.62H586.075L577.525 275.471L568.975 260.62ZM900 38.0449H0V113.017H900V38.0449ZM900 488.011H0V563.028H900V488.011Z" fill="#2E52B2"/>
</svg>
