<svg width="900" height="600" viewBox="0 0 900 600" fill="none" xmlns="http://www.w3.org/2000/svg">
<path d="M900 0H0V600H900V0Z" fill="#F0F0F0"/>
<path d="M525 489.741C547.161 489.741 569.104 485.376 589.578 476.896C610.052 468.416 628.654 455.987 644.324 440.318C659.994 424.649 672.424 406.047 680.905 385.574C689.385 365.101 693.75 343.159 693.75 320.999C693.75 298.84 689.385 276.897 680.905 256.425C672.424 235.952 659.994 217.35 644.324 201.681C628.654 186.012 610.052 173.583 589.578 165.103C569.104 156.622 547.161 152.258 525 152.258C480.245 152.258 437.322 170.036 405.676 201.681C374.029 233.326 356.25 276.246 356.25 320.999C356.25 365.752 374.029 408.673 405.676 440.318C437.322 471.963 480.245 489.741 525 489.741Z" fill="#D80027"/>
</svg>
