<svg width="900" height="600" viewBox="0 0 900 600" fill="none" xmlns="http://www.w3.org/2000/svg">
<path d="M900 0H0V600H900V0Z" fill="#F7F7F7"/>
<path d="M630.575 319.019C630.575 346.377 581.525 414.864 521 414.864C460.52 414.864 411.425 346.377 411.425 319.019C411.425 289.959 422.97 262.09 443.519 241.541C464.068 220.993 491.939 209.449 521 209.449C550.061 209.449 577.932 220.993 598.481 241.541C619.031 262.09 630.575 289.959 630.575 319.019V319.019Z" fill="#D80027"/>
<path d="M630.575 319C630.575 348.06 619.031 375.929 598.481 396.477C577.932 417.026 550.061 428.57 521 428.57C491.939 428.57 464.068 417.026 443.519 396.477C422.97 375.929 411.425 348.06 411.425 319" fill="#0052B4"/>
<path d="M666.26 386.802L637.19 415.826L656.54 435.175L685.61 406.151L666.26 386.802ZM617.84 435.175L588.77 464.244L608.12 483.593L637.19 454.524L617.84 435.175ZM724.4 444.85L695.33 473.918L714.68 493.267L743.75 464.199L724.4 444.85ZM675.935 493.267L646.865 522.336L666.215 541.685L695.285 512.661L675.935 493.312V493.267ZM695.33 415.826L666.26 444.85L685.61 464.199L714.68 435.175L695.33 415.826ZM646.865 464.244L617.84 493.267L637.19 512.616L666.26 483.593L646.91 464.244H646.865ZM617.84 144.67L695.33 222.156L714.68 202.807L637.235 125.32L617.885 144.67H617.84ZM588.815 173.738L617.84 202.762L637.19 183.413L608.165 154.344L588.815 173.693V173.738ZM637.19 222.156L666.26 251.179L685.61 231.83L656.585 202.762L637.235 222.111L637.19 222.156ZM646.865 115.601L675.935 144.67L695.285 125.32L666.26 96.252L646.91 115.601H646.865ZM695.33 164.019L724.4 193.087L743.75 173.738L714.68 144.67L695.33 164.019ZM395.135 522.336L317.6 444.85L298.25 464.199L375.695 541.685L395.045 522.336H395.135ZM424.16 493.267L395.09 464.244L375.74 483.593L404.765 512.661L424.115 493.312L424.16 493.267ZM375.74 444.85L346.67 415.826L327.32 435.175L356.345 464.244L375.695 444.895L375.74 444.85ZM453.23 464.244L375.74 386.757L356.39 406.106L433.835 483.593L453.185 464.244H453.23ZM317.6 193.087L395.135 115.601L375.785 96.252L298.25 173.648L317.6 192.997V193.087ZM346.67 222.156L424.16 144.67L404.81 125.32L327.32 202.762L346.67 222.111V222.156ZM375.74 251.179L453.185 173.693L433.835 154.344L356.3 231.83L375.65 251.179H375.74Z" fill="black"/>
</svg>
