<svg width="900" height="600" viewBox="0 0 900 600" fill="none" xmlns="http://www.w3.org/2000/svg">
<path d="M900 0H0V600H900V0Z" fill="#FF0000"/>
<path d="M488 0H0V600H488V0Z" fill="#006600"/>
<path fill-rule="evenodd" clip-rule="evenodd" d="M605.36 409.061C560.045 407.696 352.25 277.991 350.825 257.336L362.299 238.2C382.911 268.149 595.339 394.29 616.204 389.82L605.36 409.055" fill="#FFFF00"/>
<path d="M605.36 409.061C560.045 407.696 352.25 277.991 350.825 257.336L362.299 238.2C382.911 268.149 595.339 394.29 616.204 389.82L605.36 409.055" stroke="black" stroke-width="0.573" stroke-linecap="round" stroke-linejoin="round"/>
<path fill-rule="evenodd" clip-rule="evenodd" d="M359.885 235.601C355.82 246.541 414.108 282.578 484.239 325.232C554.367 367.883 614.837 394.241 619.319 390.461C619.593 389.973 621.524 386.649 621.347 386.676C620.507 387.942 618.462 388.342 615.271 387.422C596.325 381.957 546.909 359.275 485.71 322.163C424.513 285.049 371.269 250.847 362.994 236.315C362.418 235.308 362.008 233.471 362.091 232.042L361.89 232.039L360.128 235.119L359.886 235.602H359.885L359.885 235.601ZM606.425 409.661C605.656 411.055 604.224 411.101 601.503 410.802C584.553 408.927 533.119 383.915 472.26 347.483C401.445 305.093 342.96 266.468 349.305 256.373L351.031 253.321L351.371 253.427C345.665 270.534 466.793 339.794 473.924 344.21C544.01 387.63 603.096 412.986 608.325 406.397L606.423 409.668V409.665L606.425 409.661Z" fill="#FFFF00" stroke="black" stroke-width="0.573" stroke-linecap="round" stroke-linejoin="round"/>
<path fill-rule="evenodd" clip-rule="evenodd" d="M488.255 269.845C533.61 269.487 589.58 263.647 621.789 250.81L614.85 239.535C595.812 250.072 539.535 257.001 487.872 258.038C426.768 257.475 383.637 251.786 362.026 237.285L355.475 249.292C395.201 266.102 435.91 269.672 488.255 269.846" fill="#FFFF00"/>
<path d="M488.255 269.845C533.61 269.487 589.58 263.647 621.789 250.81L614.85 239.535C595.812 250.072 539.535 257.001 487.872 258.038C426.768 257.475 383.637 251.786 362.026 237.285L355.475 249.292C395.201 266.102 435.91 269.672 488.255 269.846" stroke="black" stroke-width="0.573" stroke-linecap="round" stroke-linejoin="round"/>
<path fill-rule="evenodd" clip-rule="evenodd" d="M623.66 251.065C622.551 252.838 601.545 260.082 570.6 265.428C549.618 268.627 522.25 271.361 488.095 271.394C455.645 271.425 429.137 269.115 409.069 266.395C376.585 261.302 359.819 254.215 353.621 251.711C354.214 250.532 354.595 249.705 355.166 248.604C373.009 255.708 389.852 259.992 409.585 263.028C429.521 265.728 455.71 268.071 487.999 268.041C521.995 268.006 549.062 265.064 569.923 261.961C601.655 256.842 618.989 250.256 621.424 247.197L623.665 251.065H623.662H623.66ZM617.57 239.631C614.13 242.393 596.993 248.471 566.841 253.286C546.719 256.17 521.133 258.751 488.444 258.783C457.388 258.813 432.015 256.721 412.716 253.909C382.095 249.91 365.798 242.696 359.922 240.593C360.507 239.582 361.102 238.58 361.713 237.573C366.285 239.875 382.013 246.259 413.052 250.656C432.132 253.362 457.544 255.378 488.445 255.346C520.98 255.313 546.275 252.682 566.27 249.814C596.577 245.644 612.885 237.893 615.362 235.952L617.571 239.628V239.631L617.57 239.631Z" fill="#FFFF00" stroke="black" stroke-width="0.573" stroke-linecap="round" stroke-linejoin="round"/>
<path fill-rule="evenodd" clip-rule="evenodd" d="M339.32 324.49C367.217 339.494 429.177 347.056 487.811 347.576C541.197 347.661 610.748 339.324 636.756 325.541L636.041 310.523C627.904 323.239 553.371 335.437 487.232 334.937C421.092 334.439 359.675 324.223 339.201 310.999L339.32 324.486" fill="#FFFF00"/>
<path d="M339.32 324.49C367.217 339.494 429.177 347.056 487.811 347.576C541.197 347.661 610.748 339.324 636.756 325.541L636.041 310.523C627.904 323.239 553.371 335.437 487.232 334.937C421.092 334.439 359.675 324.223 339.201 310.999L339.32 324.486" stroke="black" stroke-width="0.573" stroke-linecap="round" stroke-linejoin="round"/>
<path fill-rule="evenodd" clip-rule="evenodd" d="M638.18 322.33L638.181 325.911C634.272 330.585 609.762 337.65 579.026 342.624C555.633 346.211 525.135 348.916 487.133 348.916C451.029 348.916 422.238 346.342 399.911 342.914C364.617 337.774 342.042 328.775 337.511 326.089L337.531 321.911C351.143 330.961 388.022 337.581 400.406 339.608C422.588 343.013 451.208 345.568 487.132 345.568C524.956 345.568 555.283 342.881 578.528 339.318C600.58 336.133 631.994 327.848 638.179 322.332H638.18L638.18 322.33ZM638.195 309.592L638.196 313.173C634.287 317.844 609.777 324.909 579.041 329.883C555.648 333.47 525.15 336.175 487.148 336.175C451.044 336.175 422.253 333.603 399.926 330.173C364.632 325.036 342.057 316.036 337.526 313.349L337.546 309.171C351.158 318.22 388.037 324.841 400.421 326.865C422.603 330.273 451.223 332.829 487.147 332.829C524.971 332.829 555.298 330.14 578.543 326.575C600.595 323.39 632.009 315.105 638.194 309.589L638.195 309.592L638.195 309.592Z" fill="#FFFF00" stroke="black" stroke-width="0.573" stroke-linecap="round" stroke-linejoin="round"/>
<path fill-rule="evenodd" clip-rule="evenodd" d="M487.685 406.481C423.527 406.098 368.554 388.992 356.945 386.165L365.41 399.416C385.915 408.042 439.546 420.896 488.3 419.473C537.056 418.05 579.665 414.274 609.692 399.656L618.372 385.923C597.909 395.56 528.27 406.381 487.684 406.48" fill="#FFFF00"/>
<path d="M487.685 406.481C423.527 406.098 368.554 388.992 356.945 386.165L365.41 399.416C385.915 408.042 439.546 420.896 488.3 419.473C537.056 418.05 579.665 414.274 609.692 399.656L618.372 385.923C597.909 395.56 528.27 406.381 487.684 406.48" stroke="black" stroke-width="0.573" stroke-linecap="round" stroke-linejoin="round"/>
<path fill-rule="evenodd" clip-rule="evenodd" d="M612.95 396.581C611.675 398.529 610.374 400.454 609.056 402.325C594.893 407.319 572.577 412.561 563.16 414.091C543.924 418.054 514.163 420.982 487.749 420.995C430.914 420.163 384.392 409.037 362.505 399.547L360.739 396.51L361.027 396.054L364.022 397.216C402.944 411.141 446.659 416.696 488.069 417.694C514.376 417.786 540.712 414.679 562.007 410.87C594.664 404.327 607.868 399.395 611.92 397.159L612.95 396.581H612.949L612.95 396.581ZM620.476 384.168C620.509 384.206 620.542 384.243 620.574 384.284C619.62 385.894 618.637 387.532 617.63 389.177C610.077 391.877 589.577 397.876 559.642 402.061C539.918 404.748 527.659 407.35 488.423 408.112C414.901 406.242 367.298 391.866 355.99 388.32L354.314 385.105C396.923 396.228 440.447 403.993 488.426 404.787C524.322 404.022 539.594 401.379 559.154 398.712C594.06 393.284 611.648 387.537 616.926 385.878C616.86 385.783 616.782 385.682 616.695 385.579L620.479 384.165L620.476 384.168L620.476 384.168Z" fill="#FFFF00" stroke="black" stroke-width="0.55" stroke-linecap="round" stroke-linejoin="round"/>
<path fill-rule="evenodd" clip-rule="evenodd" d="M621.245 312.64C621.453 354.845 599.855 392.719 582.458 409.427C557.846 433.066 525.213 448.271 487.104 448.972C444.549 449.754 404.425 422.011 393.662 409.823C372.62 385.996 355.489 355.738 354.94 314.959C357.546 268.895 375.629 236.809 401.842 214.805C428.054 192.802 462.956 182.086 492.023 182.852C525.56 183.737 564.735 200.189 591.804 232.85C609.539 254.249 617.219 277.472 621.245 312.64ZM487.466 168.127C569.193 168.127 636.41 234.634 636.41 316.181C636.41 397.727 569.193 464.237 487.466 464.237C405.738 464.237 339.08 397.729 339.08 316.181C339.08 234.634 405.738 168.127 487.466 168.127" fill="#FFFF00"/>
<path d="M487.466 168.127C569.193 168.127 636.41 234.634 636.41 316.181C636.41 397.727 569.193 464.237 487.466 464.237C405.738 464.237 339.08 397.729 339.08 316.181C339.08 234.634 405.738 168.127 487.466 168.127M621.245 312.64C621.453 354.845 599.855 392.719 582.458 409.427C557.846 433.066 525.213 448.271 487.104 448.972C444.549 449.754 404.425 422.011 393.662 409.823C372.62 385.996 355.489 355.738 354.94 314.959C357.546 268.895 375.629 236.809 401.842 214.805C428.054 192.802 462.956 182.086 492.023 182.852C525.56 183.737 564.735 200.189 591.804 232.85C609.539 254.249 617.219 277.472 621.245 312.64Z" stroke="black" stroke-width="0.573" stroke-linecap="round" stroke-linejoin="round"/>
<path fill-rule="evenodd" clip-rule="evenodd" d="M487.865 167.62C569.666 167.62 636.381 234.345 636.381 316.153C636.381 397.96 569.664 464.683 487.865 464.683C406.064 464.683 339.349 397.962 339.349 316.153C339.349 234.345 406.066 167.62 487.865 167.62V167.62ZM342.617 316.154C342.617 396.044 408.221 461.417 487.865 461.417C567.51 461.417 633.115 396.044 633.115 316.154C633.115 236.261 567.509 170.888 487.865 170.888C408.221 170.888 342.617 236.264 342.617 316.154Z" fill="#FFFF00" stroke="black" stroke-width="0.573" stroke-linecap="round" stroke-linejoin="round"/>
<path fill-rule="evenodd" clip-rule="evenodd" d="M487.985 179.965C562.581 179.965 624.024 241.196 624.024 316.021C624.024 390.847 562.58 452.075 487.985 452.075C413.39 452.075 351.945 390.847 351.945 316.021C351.945 241.196 413.392 179.965 487.985 179.965V179.965ZM355.213 316.02C355.213 389.047 415.181 448.806 487.985 448.806C560.789 448.806 620.757 389.047 620.757 316.02C620.757 242.991 560.79 183.232 487.985 183.232C415.181 183.232 355.213 242.991 355.213 316.02Z" fill="#FFFF00" stroke="black" stroke-width="0.573" stroke-linecap="round" stroke-linejoin="round"/>
<path fill-rule="evenodd" clip-rule="evenodd" d="M493.97 167.021H481.242L481.257 465.461H494.029L493.97 167.021Z" fill="#FFFF00" stroke="black" stroke-width="0.573" stroke-linecap="round" stroke-linejoin="round"/>
<path fill-rule="evenodd" clip-rule="evenodd" d="M492.695 165.319H495.935L495.962 467.194H492.72L492.696 165.319H492.695ZM480.063 165.322H483.328L483.332 467.197H480.065V165.322H480.063Z" fill="#FFFF00" stroke="black" stroke-width="0.573" stroke-linecap="round" stroke-linejoin="round"/>
<path fill-rule="evenodd" clip-rule="evenodd" d="M636.485 321.903V310.87L627.5 302.5L576.5 289L503 281.5L414.5 286L351.5 301L338.78 310.42V321.456L371 307L447.5 295H521L575 301L612.5 310L636.485 321.903Z" fill="#FFFF00" stroke="black" stroke-width="0.573" stroke-linecap="round" stroke-linejoin="round"/>
<path fill-rule="evenodd" clip-rule="evenodd" d="M487.925 293.155C522.999 293.09 557.03 296.478 584.023 301.734C611.876 307.302 631.478 314.268 638.18 322.091L638.172 325.964C630.09 316.229 603.713 309.092 583.395 305.012C556.608 299.801 522.806 296.437 487.925 296.502C451.118 296.571 416.845 300.057 390.449 305.207C369.269 309.409 341.023 317.758 337.496 325.994V321.96C339.433 316.26 360.465 307.741 389.972 301.835C416.565 296.649 450.902 293.222 487.925 293.155V293.155ZM487.94 280.417C523.015 280.353 557.045 283.743 584.037 288.996C611.891 294.567 631.493 301.529 638.195 309.352L638.188 313.226C630.105 303.493 603.728 296.355 583.41 292.277C556.623 287.063 522.821 283.699 487.94 283.767C451.133 283.833 417.026 287.321 390.628 292.469C370.189 296.343 340.789 305.023 337.51 313.259V309.222C339.446 303.584 360.905 294.76 389.987 289.097C416.581 283.911 450.917 280.487 487.94 280.417V280.417Z" fill="#FFFF00" stroke="black" stroke-width="0.573" stroke-linecap="round" stroke-linejoin="round"/>
<path fill-rule="evenodd" clip-rule="evenodd" d="M487.22 215.441C542.493 215.164 590.705 223.169 612.762 234.468L620.808 248.387C601.637 238.055 549.624 227.312 487.301 228.918C436.52 229.23 382.26 234.509 355.037 249.033L364.642 232.97C386.984 221.383 439.675 215.505 487.222 215.444" fill="#FFFF00"/>
<path d="M487.22 215.441C542.493 215.164 590.705 223.169 612.762 234.468L620.808 248.387C601.637 238.055 549.624 227.312 487.301 228.918C436.52 229.23 382.26 234.509 355.037 249.033L364.642 232.97C386.984 221.383 439.675 215.505 487.222 215.444" stroke="black" stroke-width="0.573" stroke-linecap="round" stroke-linejoin="round"/>
<path fill-rule="evenodd" clip-rule="evenodd" d="M487.955 226.93C519.48 226.847 549.943 228.625 574.169 232.996C596.73 237.195 618.246 243.497 621.323 246.886L623.708 251.101C616.226 246.216 597.607 240.776 573.7 236.242C549.691 231.73 519.25 230.235 487.9 230.317C452.317 230.195 424.672 232.074 400.946 236.211C375.854 240.906 358.445 247.613 354.151 250.8L356.488 246.344C364.833 242.087 378.073 236.955 400.323 232.95C424.858 228.468 452.797 227.124 487.957 226.93H487.956L487.955 226.93ZM487.941 214.204C518.111 214.124 547.899 215.806 571.119 219.98C589.433 223.545 607.544 229.111 614.175 234.064L617.664 239.607C611.733 233.015 589.41 226.768 569.703 223.269C546.661 219.295 518.11 217.722 487.941 217.47C456.279 217.559 427.018 219.498 404.313 223.632C382.651 227.755 368.673 232.635 362.758 236.446L365.826 231.816C373.988 227.519 387.174 223.573 403.781 220.346C426.654 216.182 456.095 214.292 487.943 214.204H487.941Z" fill="#FFFF00" stroke="black" stroke-width="0.573" stroke-linecap="round" stroke-linejoin="round"/>
<path fill-rule="evenodd" clip-rule="evenodd" d="M561.725 377.891C534.398 372.789 507.021 372.049 487.899 372.274C395.789 373.353 366.033 391.187 362.402 396.587L355.518 385.365C378.969 368.367 429.127 358.834 488.398 359.809C519.175 360.313 545.734 362.357 568.077 366.685L561.723 377.894" fill="#FFFF00"/>
<path d="M561.725 377.891C534.398 372.789 507.021 372.049 487.899 372.274C395.789 373.353 366.033 391.187 362.402 396.587L355.518 385.365C378.969 368.367 429.127 358.834 488.398 359.809C519.175 360.313 545.734 362.357 568.077 366.685L561.723 377.894" stroke="black" stroke-width="0.573" stroke-linecap="round" stroke-linejoin="round"/>
<path fill-rule="evenodd" clip-rule="evenodd" d="M487.37 370.691C512.993 371.073 538.144 372.131 562.42 376.658L560.662 379.762C538.115 375.6 514.079 374.007 487.457 374.137C453.462 373.871 419.079 377.046 389.145 385.637C379.7 388.265 364.064 394.338 362.469 399.356L360.721 396.472C361.225 393.506 370.675 387.35 388.342 382.386C422.629 372.568 454.7 370.913 487.37 370.688V370.691L487.37 370.691ZM488.533 357.796C515.08 358.292 542.495 359.52 569.143 364.798L567.312 368.029C543.249 363.252 520.258 361.659 488.689 361.173C454.587 361.236 418.413 363.667 385.522 373.229C374.904 376.322 356.577 383.01 355.966 388.304L354.218 385.206C354.616 380.397 370.481 374.124 384.755 369.972C417.899 360.336 454.167 357.858 488.534 357.796L488.533 357.796Z" fill="#FFFF00" stroke="black" stroke-width="0.55" stroke-linecap="round" stroke-linejoin="round"/>
<path fill-rule="evenodd" clip-rule="evenodd" d="M619.37 387.07L608.301 404.244L576.5 376L494 320.5L401 269.5L352.715 252.985L363.005 233.905L366.5 232L396.5 239.5L495.5 290.5L552.5 326.5L600.5 361L620 383.5L619.37 387.07Z" fill="#FFFF00" stroke="black" stroke-width="0.573" stroke-linecap="round" stroke-linejoin="round"/>
<path fill-rule="evenodd" clip-rule="evenodd" d="M350.975 253.435C359.444 247.691 421.684 275.417 486.808 314.686C551.759 354.067 613.823 398.567 608.221 406.895L606.378 409.794L605.532 410.461C605.714 410.331 606.648 409.189 605.441 406.102C602.674 396.996 558.649 361.865 485.6 317.759C414.388 275.296 355.039 249.703 349.105 257.018L350.975 253.434H350.974L350.975 253.435ZM621.635 386.826C626.99 376.248 569.261 332.76 497.687 290.418C424.468 248.919 371.696 224.491 362.057 231.775L359.915 235.674C359.897 235.888 359.993 235.408 360.446 235.059C362.199 233.529 365.104 233.632 366.415 233.609C383.012 233.857 430.415 255.672 496.924 293.801C526.066 310.773 620.03 371.037 619.672 387.984C619.697 389.441 619.792 389.741 619.244 390.462L621.635 386.827V386.824L621.635 386.826Z" fill="#FFFF00" stroke="black" stroke-width="0.573" stroke-linecap="round" stroke-linejoin="round"/>
<path d="M397.9 332.515C397.9 356.921 407.894 378.995 424.086 395.128C440.308 411.295 462.353 421.496 486.799 421.496C511.37 421.496 533.669 411.518 549.823 395.413C565.976 379.31 575.988 357.085 575.992 332.593H575.989V213.809L397.879 213.598L397.897 332.515H397.9L397.9 332.515Z" fill="white" stroke="black" stroke-width="0.67037"/>
<path d="M401.23 332.679V332.747C401.23 356.082 410.892 377.333 426.393 392.76C441.924 408.218 463.314 417.828 486.714 417.828C510.235 417.828 531.582 408.287 547.047 392.889C562.509 377.492 572.092 356.24 572.095 332.823H572.092V217.584L401.332 217.557L401.227 332.679L401.23 332.679ZM537.76 252.058L537.766 325.395L537.704 333.152H537.706C537.706 335.193 537.583 337.52 537.345 339.502C535.957 351.096 530.624 361.203 522.727 369.064C513.482 378.268 500.72 383.976 486.656 383.976C472.666 383.976 460.198 378.069 450.913 368.826C441.388 359.346 435.868 346.347 435.868 332.906L435.848 251.871L537.758 252.055L537.761 252.058L537.76 252.058Z" fill="#FF0000" stroke="black" stroke-width="0.50734"/>
<path d="M412.285 247.645C412.487 239.364 418.364 237.403 418.406 237.374C418.448 237.347 424.753 239.486 424.732 247.722L412.285 247.645" fill="#FFFF00"/>
<path d="M407.215 237.535L406.192 247.052L412.403 247.065C412.463 239.191 418.364 237.882 418.507 237.911C418.641 237.903 424.49 239.652 424.646 247.065H430.873L429.749 237.476L407.216 237.532V237.535L407.215 237.535Z" fill="#FFFF00" stroke="black" stroke-width="0.5"/>
<path d="M405.775 247.09H431.194C431.73 247.09 432.168 247.619 432.168 248.266C432.168 248.911 431.73 249.438 431.194 249.438H405.775C405.239 249.438 404.801 248.911 404.801 248.266C404.801 247.619 405.239 247.09 405.775 247.09Z" fill="#FFFF00" stroke="black" stroke-width="0.5"/>
<path d="M415.015 247.045C415.043 242.076 418.408 240.67 418.425 240.673C418.427 240.673 421.939 242.123 421.967 247.045H415.015" fill="#FFFF00"/>
<path d="M415.015 247.045C415.043 242.076 418.408 240.67 418.425 240.673C418.427 240.673 421.939 242.123 421.967 247.045H415.015" stroke="black" stroke-width="0.5"/>
<path d="M406.315 233.575H430.683C431.196 233.575 431.616 234.053 431.616 234.632C431.616 235.213 431.196 235.689 430.683 235.689H406.315C405.802 235.689 405.381 235.216 405.381 234.632C405.381 234.053 405.802 233.575 406.315 233.575Z" fill="#FFFF00" stroke="black" stroke-width="0.5"/>
<path d="M406.825 235.705H430.132C430.623 235.705 431.025 236.18 431.025 236.761C431.025 237.343 430.623 237.818 430.132 237.818H406.825C406.334 237.818 405.932 237.343 405.932 236.761C405.932 236.18 406.334 235.705 406.825 235.705Z" fill="#FFFF00" stroke="black" stroke-width="0.5"/>
<path d="M414.355 219.82L416.195 219.823V221.13H417.538V219.794L419.423 219.8V221.131H420.769V219.795H422.656L422.653 222.812C422.653 223.286 422.272 223.593 421.83 223.593H415.213C414.769 223.593 414.359 223.237 414.357 222.803L414.353 219.821H414.354L414.355 219.82Z" fill="#FFFF00" stroke="black" stroke-width="0.5"/>
<path d="M421.285 223.855L421.7 233.532L415.246 233.508L415.673 223.83L421.285 223.855" fill="#FFFF00"/>
<path d="M421.285 223.855L421.7 233.532L415.246 233.508L415.673 223.83L421.285 223.855" stroke="black" stroke-width="0.5"/>
<path d="M413.41 228.34L413.607 233.556L407.419 233.559L407.593 228.34H413.411H413.41L413.41 228.34Z" fill="#FFFF00" stroke="black" stroke-width="0.5"/>
<path d="M406.45 224.56L408.249 224.565V225.873H409.565V224.534L411.409 224.54V225.874H412.728V224.535L414.574 224.538L414.571 227.555C414.571 228.026 414.198 228.333 413.766 228.333H407.291C406.857 228.333 406.454 227.98 406.452 227.545L406.448 224.562H406.449L406.45 224.56Z" fill="#FFFF00" stroke="black" stroke-width="0.5"/>
<path d="M417.85 226.915C417.81 225.975 419.165 225.964 419.149 226.915V229.22H417.85V226.916" fill="black"/>
<path d="M409.855 230.26C409.85 229.351 411.11 229.333 411.095 230.26V232.041H409.855V230.26" fill="black"/>
<path d="M475.954 319.609V319.616C475.954 322.934 477.228 325.957 479.272 328.15C481.319 330.351 484.14 331.717 487.225 331.717C490.325 331.717 493.141 330.36 495.179 328.169C497.216 325.981 498.482 322.961 498.482 319.629V303.477L475.994 303.459L475.953 319.608" fill="#003399"/>
<path d="M481.111 311.831C482.342 311.831 483.34 310.833 483.34 309.602C483.34 308.371 482.342 307.373 481.111 307.373C479.88 307.373 478.882 308.371 478.882 309.602C478.882 310.833 479.88 311.831 481.111 311.831Z" fill="white"/>
<path d="M493.588 311.842C494.819 311.842 495.817 310.844 495.817 309.613C495.817 308.382 494.819 307.384 493.588 307.384C492.357 307.384 491.359 308.382 491.359 309.613C491.359 310.844 492.357 311.842 493.588 311.842Z" fill="white"/>
<path d="M487.338 317.831C488.569 317.831 489.566 316.833 489.566 315.602C489.566 314.371 488.569 313.373 487.338 313.373C486.106 313.373 485.109 314.371 485.109 315.602C485.109 316.833 486.106 317.831 487.338 317.831Z" fill="white"/>
<path d="M481.111 324.104C482.342 324.104 483.34 323.106 483.34 321.875C483.34 320.643 482.342 319.646 481.111 319.646C479.88 319.646 478.882 320.643 478.882 321.875C478.882 323.106 479.88 324.104 481.111 324.104Z" fill="white"/>
<path d="M493.574 324.086C494.806 324.086 495.803 323.088 495.803 321.857C495.803 320.626 494.806 319.628 493.574 319.628C492.343 319.628 491.346 320.626 491.346 321.857C491.346 323.088 492.343 324.086 493.574 324.086Z" fill="white"/>
</svg>
