<svg width="900" height="600" viewBox="0 0 900 600" fill="none" xmlns="http://www.w3.org/2000/svg">
<path d="M900 0H0V600H900V0Z" fill="#E30A17"/>
<path d="M430.735 475.976C470.514 475.976 508.663 460.175 536.79 432.049C564.918 403.923 580.72 365.775 580.72 325.999C580.72 286.222 564.918 248.075 536.79 219.949C508.663 191.823 470.514 176.021 430.735 176.021C390.957 176.021 352.807 191.823 324.68 219.949C296.552 248.075 280.75 286.222 280.75 325.999C280.75 365.775 296.552 403.923 324.68 432.049C352.807 460.175 390.957 475.976 430.735 475.976V475.976Z" fill="white"/>
<path d="M467.265 446.008C499.095 446.008 529.621 433.364 552.128 410.858C574.636 388.352 587.28 357.828 587.28 325.999C587.28 294.171 574.636 263.646 552.128 241.14C529.621 218.634 499.095 205.99 467.265 205.99C435.435 205.99 404.909 218.634 382.402 241.14C359.894 263.646 347.25 294.171 347.25 325.999C347.25 357.828 359.894 388.352 382.402 410.858C404.909 433.364 435.435 446.008 467.265 446.008V446.008Z" fill="#E30A17"/>
<path d="M549.489 326.001L685.164 370.099L601.329 254.68V397.323L685.164 281.903L549.489 326.001V326.001Z" fill="white"/>
</svg>
