<svg xmlns="http://www.w3.org/2000/svg" width="40" height="40" fill="none" viewBox="0 0 40 40">
    <path fill="#095AB3" d="M14.684 35.786c3.345 3.396-.839 4.122-.839 4.122-1.36.462-1.605-.97-1.605-.97l-2.858-8.454c-.607-2.182-1.961-1.779-1.961-1.779-3.44 1.164-4.695-2.783-4.695-2.783l-1.583-4.675c-1.15-3.4 2.311-4.738 2.311-4.738l4.444-1.505c1.435-.485 1.652.871 1.652.871l3.581 10.82c.306.903-.306 2.876-.306 2.876 0 2.804 2.831 4.174 1.859 6.215zM31.294 17.1c.989-1.058 1.395-2.607.897-4.075-.498-1.474-1.759-2.454-3.19-2.693L25.662.465c-.436-1.29-1.042.513-1.042.513-2.453 9.776-13.339 12.739-13.339 12.739-1.26.43-.698 1.436-.698 1.436l3.153 9.316c.363 1.075 1.49.695 1.49.695 11.927-4.038 18.54 2.128 18.54 2.128s1.334.853.857-.344l-3.33-9.849zm4.24-11.87l-.601-.435-3.372 4.633.6.436 3.373-4.634zm-1.989 11.71l5.015 2.77.36-.653-5.015-2.767-.36.65zm.042-3.798l5.504-1.59-.208-.716-5.504 1.59.208.716z"/>
</svg>
