<svg xmlns="http://www.w3.org/2000/svg" width="40" height="40" fill="none" viewBox="0 0 40 40">
    <g clip-path="url(#a)">
        <path fill="#095AB3" d="M37.146 13.82c-.161-1.215-.184-3.31.945-4.013.02-.013.035-.031.053-.047.924-.296 1.563-.71 1.06-1.268l-13.62-4.104L3.529 7.454s-2.526.361-2.3 4.285c.122 2.136.792 3.185 1.378 3.7l-1.81.546c-.502.558.137.973 1.06 1.267.018.017.032.035.053.048 1.129.704 1.107 2.798.945 4.014-4.055 1.152-2.6 1.527-2.6 1.527l.89.215c-.626.565-1.247 1.637-1.13 3.67.225 3.924 2.3 4.195 2.3 4.195l14.432 4.69 21.785-5.276s1.456-.376-2.6-1.527c-.163-1.214-.186-3.308.946-4.014.02-.012.035-.031.052-.047.924-.295 1.562-.71 1.06-1.267l-.946-.286c.631-.38 1.58-1.376 1.728-3.961.103-1.779-.361-2.82-.898-3.433l1.872-.453s1.456-.375-2.6-1.527zm-18.221-.05l3.663-.753 12.38-2.544 1.845-.38c-.59 1.08-.565 2.556-.467 3.505.021.214.046.41.07.56l-2.02.501-15.625 3.887.154-4.776zM3.189 17.588l1.844.38 11.89 2.444 1.038.212 3.115.64.153 4.777-16.06-3.996-1.583-.393a11.5 11.5 0 0 0 .07-.56c.097-.949.122-2.425-.467-3.504zm-.717-6.038c-.022-1.043.164-1.798.54-2.182a.98.98 0 0 1 .715-.296c.102 0 .176.014.18.014l9.504 3.098 4.741 1.546-.155 4.81-13.301-3.73-.702-.196a.424.424 0 0 0-.088-.013c-.055-.004-1.37-.125-1.434-3.05zm14.31 21.978L2.779 29.602a.417.417 0 0 0-.087-.013c-.056-.004-1.372-.125-1.435-3.05-.023-1.045.164-1.799.54-2.183a.982.982 0 0 1 .715-.296c.102 0 .176.014.18.014 0 0 .002 0 0 0l14.244 4.645-.154 4.81zm18.348-4.943c.022.216.047.411.07.56l-17.644 4.39.154-4.776 3.772-.776.557.135 2.088-.679 9.626-1.977 1.845-.38c-.59 1.078-.566 2.555-.468 3.503zm.972-6.49a.34.34 0 0 0-.094.014l-1.331.372-12.672 3.553-.154-4.809 4.157-1.356 10.066-3.283c.002 0 .53-.118.918.276.375.384.561 1.139.54 2.183-.066 2.924-1.382 3.046-1.43 3.05z"/>
    </g>
    <defs>
        <clipPath id="a">
            <path fill="#fff" d="M0 0h40v40H0z"/>
        </clipPath>
    </defs>
</svg>
