<svg xmlns="http://www.w3.org/2000/svg" width="40" height="40" fill="none" viewBox="0 0 40 40">
    <path fill="#095AB3" d="M.86 24.61c0 .646.526 1.171 1.173 1.171h.39v2.344h7.055c.062-1.58.25-3.148.563-4.688H2.033c-.647 0-1.172.525-1.172 1.172zM18.83 28.125v-2.344h.39a1.172 1.172 0 0 0 0-2.343h-6.783a26.984 26.984 0 0 0-.613 4.687h7.005zM.108 30.469c-.04.27-.028-.18-.028 6.797A2.737 2.737 0 0 0 2.814 40H18.44a2.737 2.737 0 0 0 2.735-2.734c0-6.978.011-6.527-.029-6.797H.108z"/>
    <path fill="#095AB3" d="M38.752 0C24.602 0 12.762 10.033 10.04 23.438h2.397c.175-.79.386-1.572.632-2.344h6.932a19.8 19.8 0 0 0 7.472-1.45c.442-.179.732-.608.732-1.085V15.08l2.725 1.817c.421.281.976.26 1.374-.054a19.89 19.89 0 0 0 7.62-15.671C39.923.525 39.398 0 38.751 0z"/>
</svg>
